<mxfile host="app.diagrams.net" modified="2022-10-11T06:16:21.863Z" agent="5.0 (Windows NT 10.0; Win64; x64) AppleWebKit/537.36 (KHTML, like Gecko) Chrome/106.0.0.0 Safari/537.36 Edg/106.0.1370.37" etag="ySOnWpbhnP_VEtY1Juad" version="20.4.0" type="github" pages="4">
  <diagram id="R2lEEEUBdFMjLlhIrx00" name="Page-1">
    <mxGraphModel dx="4088" dy="1872" grid="1" gridSize="10" guides="1" tooltips="1" connect="1" arrows="1" fold="1" page="1" pageScale="1" pageWidth="3300" pageHeight="4681" math="0" shadow="0" extFonts="Permanent Marker^https://fonts.googleapis.com/css?family=Permanent+Marker">
      <root>
        <mxCell id="0" />
        <mxCell id="1" parent="0" />
        <mxCell id="AkIjyQrMHjfQiVH6Yhb1-1" value="BENHNHAN" style="rounded=0;whiteSpace=wrap;html=1;" parent="1" vertex="1">
          <mxGeometry x="360" y="50" width="120" height="40" as="geometry" />
        </mxCell>
        <mxCell id="AkIjyQrMHjfQiVH6Yhb1-2" value="THEBAOHIEMYTE" style="rounded=0;whiteSpace=wrap;html=1;" parent="1" vertex="1">
          <mxGeometry x="30" y="50" width="120" height="40" as="geometry" />
        </mxCell>
        <mxCell id="AkIjyQrMHjfQiVH6Yhb1-8" value="CO" style="shape=rhombus;perimeter=rhombusPerimeter;whiteSpace=wrap;html=1;align=center;" parent="1" vertex="1">
          <mxGeometry x="190" y="40" width="120" height="60" as="geometry" />
        </mxCell>
        <mxCell id="AkIjyQrMHjfQiVH6Yhb1-9" value="" style="edgeStyle=entityRelationEdgeStyle;fontSize=12;html=1;endArrow=ERzeroToOne;endFill=1;rounded=0;entryX=1;entryY=0.5;entryDx=0;entryDy=0;exitX=0;exitY=0.5;exitDx=0;exitDy=0;" parent="1" source="AkIjyQrMHjfQiVH6Yhb1-8" target="AkIjyQrMHjfQiVH6Yhb1-2" edge="1">
          <mxGeometry width="100" height="100" relative="1" as="geometry">
            <mxPoint x="200" y="220" as="sourcePoint" />
            <mxPoint x="470" y="130" as="targetPoint" />
          </mxGeometry>
        </mxCell>
        <mxCell id="AkIjyQrMHjfQiVH6Yhb1-10" value="" style="edgeStyle=entityRelationEdgeStyle;fontSize=12;html=1;endArrow=ERone;endFill=1;rounded=0;exitX=1;exitY=0.5;exitDx=0;exitDy=0;entryX=0;entryY=0.5;entryDx=0;entryDy=0;" parent="1" source="AkIjyQrMHjfQiVH6Yhb1-8" target="AkIjyQrMHjfQiVH6Yhb1-1" edge="1">
          <mxGeometry width="100" height="100" relative="1" as="geometry">
            <mxPoint x="370" y="230" as="sourcePoint" />
            <mxPoint x="470" y="130" as="targetPoint" />
          </mxGeometry>
        </mxCell>
        <mxCell id="AkIjyQrMHjfQiVH6Yhb1-11" value="GIAYNHAPVIEN" style="whiteSpace=wrap;html=1;align=center;" parent="1" vertex="1">
          <mxGeometry x="90" y="170" width="100" height="40" as="geometry" />
        </mxCell>
        <mxCell id="AkIjyQrMHjfQiVH6Yhb1-12" value="BENHAN" style="whiteSpace=wrap;html=1;align=center;" parent="1" vertex="1">
          <mxGeometry x="250" y="180" width="100" height="40" as="geometry" />
        </mxCell>
        <mxCell id="AkIjyQrMHjfQiVH6Yhb1-13" value="BACSI" style="whiteSpace=wrap;html=1;align=center;" parent="1" vertex="1">
          <mxGeometry x="570" y="40" width="100" height="40" as="geometry" />
        </mxCell>
        <mxCell id="AkIjyQrMHjfQiVH6Yhb1-14" value="KHOA" style="whiteSpace=wrap;html=1;align=center;" parent="1" vertex="1">
          <mxGeometry x="550" y="310" width="100" height="40" as="geometry" />
        </mxCell>
        <mxCell id="AkIjyQrMHjfQiVH6Yhb1-19" value="NGAYVAOLAM" style="ellipse;whiteSpace=wrap;html=1;align=center;" parent="1" vertex="1">
          <mxGeometry x="710" y="170" width="100" height="40" as="geometry" />
        </mxCell>
        <mxCell id="AkIjyQrMHjfQiVH6Yhb1-22" value="" style="endArrow=none;html=1;rounded=0;strokeWidth=1;entryX=0;entryY=0.5;entryDx=0;entryDy=0;exitX=1;exitY=0.5;exitDx=0;exitDy=0;" parent="1" source="AkIjyQrMHjfQiVH6Yhb1-39" target="AkIjyQrMHjfQiVH6Yhb1-19" edge="1">
          <mxGeometry relative="1" as="geometry">
            <mxPoint x="670" y="210" as="sourcePoint" />
            <mxPoint x="690" y="190" as="targetPoint" />
          </mxGeometry>
        </mxCell>
        <mxCell id="AkIjyQrMHjfQiVH6Yhb1-24" value="" style="edgeStyle=entityRelationEdgeStyle;fontSize=12;html=1;endArrow=ERoneToMany;strokeWidth=1;entryX=0.5;entryY=1;entryDx=0;entryDy=0;exitX=0.5;exitY=0;exitDx=0;exitDy=0;rounded=0;" parent="1" source="AkIjyQrMHjfQiVH6Yhb1-39" target="AkIjyQrMHjfQiVH6Yhb1-13" edge="1">
          <mxGeometry width="100" height="100" relative="1" as="geometry">
            <mxPoint x="610" y="180" as="sourcePoint" />
            <mxPoint x="470" y="130" as="targetPoint" />
          </mxGeometry>
        </mxCell>
        <mxCell id="AkIjyQrMHjfQiVH6Yhb1-25" value="" style="edgeStyle=entityRelationEdgeStyle;fontSize=12;html=1;endArrow=ERoneToMany;rounded=0;strokeWidth=1;entryX=0.5;entryY=0;entryDx=0;entryDy=0;exitX=0.5;exitY=1;exitDx=0;exitDy=0;" parent="1" source="AkIjyQrMHjfQiVH6Yhb1-39" target="AkIjyQrMHjfQiVH6Yhb1-14" edge="1">
          <mxGeometry width="100" height="100" relative="1" as="geometry">
            <mxPoint x="690" y="290" as="sourcePoint" />
            <mxPoint x="470" y="210" as="targetPoint" />
          </mxGeometry>
        </mxCell>
        <mxCell id="AkIjyQrMHjfQiVH6Yhb1-26" value="NHANVIEN" style="whiteSpace=wrap;html=1;align=center;" parent="1" vertex="1">
          <mxGeometry x="300" y="350" width="100" height="40" as="geometry" />
        </mxCell>
        <mxCell id="AkIjyQrMHjfQiVH6Yhb1-27" value="PHONGBAN" style="whiteSpace=wrap;html=1;align=center;" parent="1" vertex="1">
          <mxGeometry x="170" y="580" width="100" height="40" as="geometry" />
        </mxCell>
        <mxCell id="AkIjyQrMHjfQiVH6Yhb1-29" value="NGAYVAOLAM" style="ellipse;whiteSpace=wrap;html=1;align=center;" parent="1" vertex="1">
          <mxGeometry x="60" y="430" width="100" height="40" as="geometry" />
        </mxCell>
        <mxCell id="AkIjyQrMHjfQiVH6Yhb1-30" value="" style="endArrow=none;html=1;rounded=0;strokeWidth=1;entryX=0.5;entryY=1;entryDx=0;entryDy=0;exitX=0;exitY=0.5;exitDx=0;exitDy=0;" parent="1" source="AkIjyQrMHjfQiVH6Yhb1-38" target="AkIjyQrMHjfQiVH6Yhb1-29" edge="1">
          <mxGeometry relative="1" as="geometry">
            <mxPoint x="160" y="490" as="sourcePoint" />
            <mxPoint x="300" y="460" as="targetPoint" />
            <Array as="points" />
          </mxGeometry>
        </mxCell>
        <mxCell id="AkIjyQrMHjfQiVH6Yhb1-31" value="" style="edgeStyle=entityRelationEdgeStyle;fontSize=12;html=1;endArrow=ERoneToMany;rounded=0;strokeWidth=1;entryX=0.5;entryY=1;entryDx=0;entryDy=0;exitX=0.5;exitY=0;exitDx=0;exitDy=0;" parent="1" source="AkIjyQrMHjfQiVH6Yhb1-38" target="AkIjyQrMHjfQiVH6Yhb1-26" edge="1">
          <mxGeometry width="100" height="100" relative="1" as="geometry">
            <mxPoint x="220" y="470" as="sourcePoint" />
            <mxPoint x="130" y="430" as="targetPoint" />
          </mxGeometry>
        </mxCell>
        <mxCell id="AkIjyQrMHjfQiVH6Yhb1-32" value="" style="edgeStyle=entityRelationEdgeStyle;fontSize=12;html=1;endArrow=ERoneToMany;rounded=0;strokeWidth=1;entryX=0.5;entryY=0;entryDx=0;entryDy=0;exitX=0.5;exitY=1;exitDx=0;exitDy=0;" parent="1" source="AkIjyQrMHjfQiVH6Yhb1-38" target="AkIjyQrMHjfQiVH6Yhb1-27" edge="1">
          <mxGeometry width="100" height="100" relative="1" as="geometry">
            <mxPoint x="220" y="510" as="sourcePoint" />
            <mxPoint x="80" y="480" as="targetPoint" />
          </mxGeometry>
        </mxCell>
        <mxCell id="AkIjyQrMHjfQiVH6Yhb1-34" value="THUOC" style="whiteSpace=wrap;html=1;align=center;" parent="1" vertex="1">
          <mxGeometry x="800" y="510" width="100" height="40" as="geometry" />
        </mxCell>
        <mxCell id="AkIjyQrMHjfQiVH6Yhb1-38" value="THUOC" style="shape=associativeEntity;whiteSpace=wrap;html=1;align=center;" parent="1" vertex="1">
          <mxGeometry x="200" y="440" width="140" height="60" as="geometry" />
        </mxCell>
        <mxCell id="AkIjyQrMHjfQiVH6Yhb1-39" value="THUOC" style="shape=associativeEntity;whiteSpace=wrap;html=1;align=center;" parent="1" vertex="1">
          <mxGeometry x="530" y="170" width="140" height="60" as="geometry" />
        </mxCell>
        <mxCell id="AkIjyQrMHjfQiVH6Yhb1-40" value="NHANVIEN" style="whiteSpace=wrap;html=1;align=center;" parent="1" vertex="1">
          <mxGeometry x="430" y="510" width="100" height="40" as="geometry" />
        </mxCell>
        <mxCell id="AkIjyQrMHjfQiVH6Yhb1-41" value="THAYDOI" style="shape=associativeEntity;whiteSpace=wrap;html=1;align=center;" parent="1" vertex="1">
          <mxGeometry x="590" y="500" width="140" height="60" as="geometry" />
        </mxCell>
        <mxCell id="AkIjyQrMHjfQiVH6Yhb1-42" value="GIA" style="ellipse;whiteSpace=wrap;html=1;align=center;" parent="1" vertex="1">
          <mxGeometry x="540" y="600" width="100" height="40" as="geometry" />
        </mxCell>
        <mxCell id="AkIjyQrMHjfQiVH6Yhb1-43" value="NGAYTHAYDOI" style="ellipse;whiteSpace=wrap;html=1;align=center;" parent="1" vertex="1">
          <mxGeometry x="690" y="600" width="100" height="40" as="geometry" />
        </mxCell>
        <mxCell id="AkIjyQrMHjfQiVH6Yhb1-54" value="" style="edgeStyle=entityRelationEdgeStyle;fontSize=12;html=1;endArrow=ERoneToMany;rounded=0;strokeWidth=1;exitX=0;exitY=0.5;exitDx=0;exitDy=0;entryX=1;entryY=0.5;entryDx=0;entryDy=0;" parent="1" source="AkIjyQrMHjfQiVH6Yhb1-41" target="AkIjyQrMHjfQiVH6Yhb1-40" edge="1">
          <mxGeometry width="100" height="100" relative="1" as="geometry">
            <mxPoint x="470" y="440" as="sourcePoint" />
            <mxPoint x="570" y="340" as="targetPoint" />
          </mxGeometry>
        </mxCell>
        <mxCell id="AkIjyQrMHjfQiVH6Yhb1-56" value="" style="endArrow=none;html=1;rounded=0;strokeWidth=1;entryX=0.5;entryY=0;entryDx=0;entryDy=0;exitX=0.5;exitY=1;exitDx=0;exitDy=0;" parent="1" source="AkIjyQrMHjfQiVH6Yhb1-41" target="AkIjyQrMHjfQiVH6Yhb1-42" edge="1">
          <mxGeometry relative="1" as="geometry">
            <mxPoint x="440" y="390" as="sourcePoint" />
            <mxPoint x="600" y="390" as="targetPoint" />
          </mxGeometry>
        </mxCell>
        <mxCell id="AkIjyQrMHjfQiVH6Yhb1-57" value="" style="endArrow=none;html=1;rounded=0;strokeWidth=1;entryX=0.5;entryY=0;entryDx=0;entryDy=0;exitX=1;exitY=1;exitDx=0;exitDy=0;" parent="1" source="AkIjyQrMHjfQiVH6Yhb1-41" target="AkIjyQrMHjfQiVH6Yhb1-43" edge="1">
          <mxGeometry relative="1" as="geometry">
            <mxPoint x="490" y="410" as="sourcePoint" />
            <mxPoint x="650" y="410" as="targetPoint" />
          </mxGeometry>
        </mxCell>
        <mxCell id="AkIjyQrMHjfQiVH6Yhb1-58" value="" style="edgeStyle=entityRelationEdgeStyle;fontSize=12;html=1;endArrow=ERoneToMany;rounded=0;strokeWidth=1;exitX=1;exitY=0.5;exitDx=0;exitDy=0;entryX=0;entryY=0.5;entryDx=0;entryDy=0;" parent="1" source="AkIjyQrMHjfQiVH6Yhb1-41" target="AkIjyQrMHjfQiVH6Yhb1-34" edge="1">
          <mxGeometry width="100" height="100" relative="1" as="geometry">
            <mxPoint x="470" y="540" as="sourcePoint" />
            <mxPoint x="570" y="440" as="targetPoint" />
          </mxGeometry>
        </mxCell>
        <mxCell id="AkIjyQrMHjfQiVH6Yhb1-70" value="DICHVU" style="whiteSpace=wrap;html=1;align=center;" parent="1" vertex="1">
          <mxGeometry x="770" y="710" width="100" height="40" as="geometry" />
        </mxCell>
        <mxCell id="AkIjyQrMHjfQiVH6Yhb1-71" value="NHANVIEN" style="whiteSpace=wrap;html=1;align=center;" parent="1" vertex="1">
          <mxGeometry x="400" y="710" width="100" height="40" as="geometry" />
        </mxCell>
        <mxCell id="AkIjyQrMHjfQiVH6Yhb1-72" value="THAYDOI" style="shape=associativeEntity;whiteSpace=wrap;html=1;align=center;" parent="1" vertex="1">
          <mxGeometry x="560" y="700" width="140" height="60" as="geometry" />
        </mxCell>
        <mxCell id="AkIjyQrMHjfQiVH6Yhb1-73" value="GIA" style="ellipse;whiteSpace=wrap;html=1;align=center;" parent="1" vertex="1">
          <mxGeometry x="510" y="800" width="100" height="40" as="geometry" />
        </mxCell>
        <mxCell id="AkIjyQrMHjfQiVH6Yhb1-74" value="NGAYTHAYDOI" style="ellipse;whiteSpace=wrap;html=1;align=center;" parent="1" vertex="1">
          <mxGeometry x="660" y="800" width="100" height="40" as="geometry" />
        </mxCell>
        <mxCell id="AkIjyQrMHjfQiVH6Yhb1-75" value="" style="edgeStyle=entityRelationEdgeStyle;fontSize=12;html=1;endArrow=ERoneToMany;rounded=0;strokeWidth=1;exitX=0;exitY=0.5;exitDx=0;exitDy=0;entryX=1;entryY=0.5;entryDx=0;entryDy=0;" parent="1" source="AkIjyQrMHjfQiVH6Yhb1-72" target="AkIjyQrMHjfQiVH6Yhb1-71" edge="1">
          <mxGeometry width="100" height="100" relative="1" as="geometry">
            <mxPoint x="440" y="640" as="sourcePoint" />
            <mxPoint x="540" y="540" as="targetPoint" />
          </mxGeometry>
        </mxCell>
        <mxCell id="AkIjyQrMHjfQiVH6Yhb1-76" value="" style="endArrow=none;html=1;rounded=0;strokeWidth=1;entryX=0.5;entryY=0;entryDx=0;entryDy=0;exitX=0.5;exitY=1;exitDx=0;exitDy=0;" parent="1" source="AkIjyQrMHjfQiVH6Yhb1-72" target="AkIjyQrMHjfQiVH6Yhb1-73" edge="1">
          <mxGeometry relative="1" as="geometry">
            <mxPoint x="410" y="590" as="sourcePoint" />
            <mxPoint x="570" y="590" as="targetPoint" />
          </mxGeometry>
        </mxCell>
        <mxCell id="AkIjyQrMHjfQiVH6Yhb1-77" value="" style="endArrow=none;html=1;rounded=0;strokeWidth=1;entryX=0.5;entryY=0;entryDx=0;entryDy=0;exitX=1;exitY=1;exitDx=0;exitDy=0;" parent="1" source="AkIjyQrMHjfQiVH6Yhb1-72" target="AkIjyQrMHjfQiVH6Yhb1-74" edge="1">
          <mxGeometry relative="1" as="geometry">
            <mxPoint x="460" y="610" as="sourcePoint" />
            <mxPoint x="620" y="610" as="targetPoint" />
          </mxGeometry>
        </mxCell>
        <mxCell id="AkIjyQrMHjfQiVH6Yhb1-78" value="" style="edgeStyle=entityRelationEdgeStyle;fontSize=12;html=1;endArrow=ERoneToMany;rounded=0;strokeWidth=1;exitX=1;exitY=0.5;exitDx=0;exitDy=0;entryX=0;entryY=0.5;entryDx=0;entryDy=0;" parent="1" source="AkIjyQrMHjfQiVH6Yhb1-72" target="AkIjyQrMHjfQiVH6Yhb1-70" edge="1">
          <mxGeometry width="100" height="100" relative="1" as="geometry">
            <mxPoint x="440" y="740" as="sourcePoint" />
            <mxPoint x="540" y="640" as="targetPoint" />
          </mxGeometry>
        </mxCell>
        <mxCell id="AkIjyQrMHjfQiVH6Yhb1-79" value="TOATHUOC" style="whiteSpace=wrap;html=1;align=center;" parent="1" vertex="1">
          <mxGeometry x="755" y="950" width="100" height="40" as="geometry" />
        </mxCell>
        <mxCell id="AkIjyQrMHjfQiVH6Yhb1-80" value="THUOC" style="whiteSpace=wrap;html=1;align=center;" parent="1" vertex="1">
          <mxGeometry x="385" y="950" width="100" height="40" as="geometry" />
        </mxCell>
        <mxCell id="AkIjyQrMHjfQiVH6Yhb1-81" value="THUOC" style="shape=associativeEntity;whiteSpace=wrap;html=1;align=center;" parent="1" vertex="1">
          <mxGeometry x="545" y="940" width="140" height="60" as="geometry" />
        </mxCell>
        <mxCell id="AkIjyQrMHjfQiVH6Yhb1-82" value="SOLUONG" style="ellipse;whiteSpace=wrap;html=1;align=center;" parent="1" vertex="1">
          <mxGeometry x="495" y="1040" width="100" height="40" as="geometry" />
        </mxCell>
        <mxCell id="AkIjyQrMHjfQiVH6Yhb1-83" value="" style="edgeStyle=entityRelationEdgeStyle;fontSize=12;html=1;endArrow=ERoneToMany;rounded=0;strokeWidth=1;exitX=0;exitY=0.5;exitDx=0;exitDy=0;entryX=1;entryY=0.5;entryDx=0;entryDy=0;" parent="1" source="AkIjyQrMHjfQiVH6Yhb1-81" target="AkIjyQrMHjfQiVH6Yhb1-80" edge="1">
          <mxGeometry width="100" height="100" relative="1" as="geometry">
            <mxPoint x="425" y="880" as="sourcePoint" />
            <mxPoint x="525" y="780" as="targetPoint" />
          </mxGeometry>
        </mxCell>
        <mxCell id="AkIjyQrMHjfQiVH6Yhb1-84" value="" style="endArrow=none;html=1;rounded=0;strokeWidth=1;entryX=0.5;entryY=0;entryDx=0;entryDy=0;exitX=0.5;exitY=1;exitDx=0;exitDy=0;" parent="1" source="AkIjyQrMHjfQiVH6Yhb1-81" target="AkIjyQrMHjfQiVH6Yhb1-82" edge="1">
          <mxGeometry relative="1" as="geometry">
            <mxPoint x="395" y="830" as="sourcePoint" />
            <mxPoint x="555" y="830" as="targetPoint" />
          </mxGeometry>
        </mxCell>
        <mxCell id="AkIjyQrMHjfQiVH6Yhb1-85" value="" style="edgeStyle=entityRelationEdgeStyle;fontSize=12;html=1;endArrow=ERoneToMany;rounded=0;strokeWidth=1;exitX=1;exitY=0.5;exitDx=0;exitDy=0;entryX=0;entryY=0.5;entryDx=0;entryDy=0;" parent="1" source="AkIjyQrMHjfQiVH6Yhb1-81" target="AkIjyQrMHjfQiVH6Yhb1-79" edge="1">
          <mxGeometry width="100" height="100" relative="1" as="geometry">
            <mxPoint x="425" y="980" as="sourcePoint" />
            <mxPoint x="525" y="880" as="targetPoint" />
          </mxGeometry>
        </mxCell>
        <mxCell id="AkIjyQrMHjfQiVH6Yhb1-93" value="PHONG" style="whiteSpace=wrap;html=1;align=center;" parent="1" vertex="1">
          <mxGeometry x="1170" y="790" width="100" height="40" as="geometry" />
        </mxCell>
        <mxCell id="AkIjyQrMHjfQiVH6Yhb1-94" value="NHANVIEN" style="whiteSpace=wrap;html=1;align=center;" parent="1" vertex="1">
          <mxGeometry x="820" y="790" width="100" height="40" as="geometry" />
        </mxCell>
        <mxCell id="AkIjyQrMHjfQiVH6Yhb1-95" value="THAYDOI" style="shape=associativeEntity;whiteSpace=wrap;html=1;align=center;" parent="1" vertex="1">
          <mxGeometry x="960" y="780" width="140" height="60" as="geometry" />
        </mxCell>
        <mxCell id="AkIjyQrMHjfQiVH6Yhb1-96" value="GIA" style="ellipse;whiteSpace=wrap;html=1;align=center;" parent="1" vertex="1">
          <mxGeometry x="910" y="880" width="100" height="40" as="geometry" />
        </mxCell>
        <mxCell id="AkIjyQrMHjfQiVH6Yhb1-97" value="NGAYTHAYDOI" style="ellipse;whiteSpace=wrap;html=1;align=center;" parent="1" vertex="1">
          <mxGeometry x="1060" y="880" width="100" height="40" as="geometry" />
        </mxCell>
        <mxCell id="AkIjyQrMHjfQiVH6Yhb1-98" value="" style="edgeStyle=entityRelationEdgeStyle;fontSize=12;html=1;endArrow=ERoneToMany;rounded=0;strokeWidth=1;exitX=0;exitY=0.5;exitDx=0;exitDy=0;entryX=1;entryY=0.5;entryDx=0;entryDy=0;" parent="1" source="AkIjyQrMHjfQiVH6Yhb1-95" target="AkIjyQrMHjfQiVH6Yhb1-94" edge="1">
          <mxGeometry width="100" height="100" relative="1" as="geometry">
            <mxPoint x="840" y="720" as="sourcePoint" />
            <mxPoint x="940" y="620" as="targetPoint" />
          </mxGeometry>
        </mxCell>
        <mxCell id="AkIjyQrMHjfQiVH6Yhb1-99" value="" style="endArrow=none;html=1;rounded=0;strokeWidth=1;entryX=0.5;entryY=0;entryDx=0;entryDy=0;exitX=0.5;exitY=1;exitDx=0;exitDy=0;" parent="1" source="AkIjyQrMHjfQiVH6Yhb1-95" target="AkIjyQrMHjfQiVH6Yhb1-96" edge="1">
          <mxGeometry relative="1" as="geometry">
            <mxPoint x="810" y="670" as="sourcePoint" />
            <mxPoint x="970" y="670" as="targetPoint" />
          </mxGeometry>
        </mxCell>
        <mxCell id="AkIjyQrMHjfQiVH6Yhb1-100" value="" style="endArrow=none;html=1;rounded=0;strokeWidth=1;entryX=0.5;entryY=0;entryDx=0;entryDy=0;exitX=1;exitY=1;exitDx=0;exitDy=0;" parent="1" source="AkIjyQrMHjfQiVH6Yhb1-95" target="AkIjyQrMHjfQiVH6Yhb1-97" edge="1">
          <mxGeometry relative="1" as="geometry">
            <mxPoint x="860" y="690" as="sourcePoint" />
            <mxPoint x="1020" y="690" as="targetPoint" />
          </mxGeometry>
        </mxCell>
        <mxCell id="AkIjyQrMHjfQiVH6Yhb1-101" value="" style="edgeStyle=entityRelationEdgeStyle;fontSize=12;html=1;endArrow=ERoneToMany;rounded=0;strokeWidth=1;exitX=1;exitY=0.5;exitDx=0;exitDy=0;entryX=0;entryY=0.5;entryDx=0;entryDy=0;" parent="1" source="AkIjyQrMHjfQiVH6Yhb1-95" target="AkIjyQrMHjfQiVH6Yhb1-93" edge="1">
          <mxGeometry width="100" height="100" relative="1" as="geometry">
            <mxPoint x="840" y="820" as="sourcePoint" />
            <mxPoint x="940" y="720" as="targetPoint" />
          </mxGeometry>
        </mxCell>
        <mxCell id="AkIjyQrMHjfQiVH6Yhb1-102" value="PHONG" style="whiteSpace=wrap;html=1;align=center;" parent="1" vertex="1">
          <mxGeometry x="1160" y="980" width="100" height="40" as="geometry" />
        </mxCell>
        <mxCell id="AkIjyQrMHjfQiVH6Yhb1-104" value="GIUONG" style="whiteSpace=wrap;html=1;align=center;" parent="1" vertex="1">
          <mxGeometry x="1540" y="980" width="100" height="40" as="geometry" />
        </mxCell>
        <mxCell id="AkIjyQrMHjfQiVH6Yhb1-106" value="CO" style="shape=rhombus;perimeter=rhombusPerimeter;whiteSpace=wrap;html=1;align=center;" parent="1" vertex="1">
          <mxGeometry x="1330" y="970" width="130" height="60" as="geometry" />
        </mxCell>
        <mxCell id="AkIjyQrMHjfQiVH6Yhb1-107" value="" style="edgeStyle=entityRelationEdgeStyle;fontSize=12;html=1;endArrow=ERoneToMany;rounded=0;strokeWidth=1;entryX=0;entryY=0.5;entryDx=0;entryDy=0;exitX=1;exitY=0.5;exitDx=0;exitDy=0;" parent="1" source="AkIjyQrMHjfQiVH6Yhb1-106" target="AkIjyQrMHjfQiVH6Yhb1-104" edge="1">
          <mxGeometry width="100" height="100" relative="1" as="geometry">
            <mxPoint x="1170" y="940" as="sourcePoint" />
            <mxPoint x="1270" y="840" as="targetPoint" />
          </mxGeometry>
        </mxCell>
        <mxCell id="AkIjyQrMHjfQiVH6Yhb1-108" value="" style="edgeStyle=entityRelationEdgeStyle;fontSize=12;html=1;endArrow=ERone;endFill=1;rounded=0;strokeWidth=1;exitX=0;exitY=0.5;exitDx=0;exitDy=0;entryX=1;entryY=0.5;entryDx=0;entryDy=0;" parent="1" source="AkIjyQrMHjfQiVH6Yhb1-106" target="AkIjyQrMHjfQiVH6Yhb1-102" edge="1">
          <mxGeometry width="100" height="100" relative="1" as="geometry">
            <mxPoint x="1170" y="940" as="sourcePoint" />
            <mxPoint x="1270" y="840" as="targetPoint" />
          </mxGeometry>
        </mxCell>
      </root>
    </mxGraphModel>
  </diagram>
  <diagram id="OsAxblh3UmTD0h207Eai" name="Trang-2">
    <mxGraphModel dx="1022" dy="468" grid="1" gridSize="10" guides="1" tooltips="1" connect="1" arrows="1" fold="1" page="1" pageScale="1" pageWidth="3300" pageHeight="4681" background="none" math="0" shadow="0">
      <root>
        <mxCell id="0" />
        <mxCell id="1" parent="0" />
        <mxCell id="8UcQ6t5s3t05RQczVyrp-1" value="NHANVIEN" style="whiteSpace=wrap;html=1;align=center;" parent="1" vertex="1">
          <mxGeometry x="270" y="840" width="100" height="40" as="geometry" />
        </mxCell>
        <mxCell id="8UcQ6t5s3t05RQczVyrp-2" value="PHONGBAN" style="whiteSpace=wrap;html=1;align=center;" parent="1" vertex="1">
          <mxGeometry x="360" y="1160" width="100" height="40" as="geometry" />
        </mxCell>
        <mxCell id="8UcQ6t5s3t05RQczVyrp-3" value="NGAYVAOLAM" style="ellipse;whiteSpace=wrap;html=1;align=center;" parent="1" vertex="1">
          <mxGeometry x="210" y="1100" width="100" height="40" as="geometry" />
        </mxCell>
        <mxCell id="8UcQ6t5s3t05RQczVyrp-4" value="" style="endArrow=none;html=1;rounded=0;strokeWidth=1;exitX=0;exitY=0.5;exitDx=0;exitDy=0;entryX=0.5;entryY=0;entryDx=0;entryDy=0;" parent="1" source="8UcQ6t5s3t05RQczVyrp-7" target="8UcQ6t5s3t05RQczVyrp-3" edge="1">
          <mxGeometry relative="1" as="geometry">
            <mxPoint x="480" y="650" as="sourcePoint" />
            <mxPoint x="280" y="1070" as="targetPoint" />
            <Array as="points" />
          </mxGeometry>
        </mxCell>
        <mxCell id="8UcQ6t5s3t05RQczVyrp-5" value="" style="edgeStyle=entityRelationEdgeStyle;fontSize=12;html=1;endArrow=ERoneToMany;rounded=0;strokeWidth=1;exitX=0.5;exitY=1;exitDx=0;exitDy=0;entryX=0.5;entryY=1;entryDx=0;entryDy=0;" parent="1" source="8UcQ6t5s3t05RQczVyrp-7" target="8UcQ6t5s3t05RQczVyrp-1" edge="1">
          <mxGeometry width="100" height="100" relative="1" as="geometry">
            <mxPoint x="540" y="630" as="sourcePoint" />
            <mxPoint x="520" y="890" as="targetPoint" />
          </mxGeometry>
        </mxCell>
        <mxCell id="8UcQ6t5s3t05RQczVyrp-6" value="" style="edgeStyle=entityRelationEdgeStyle;fontSize=12;html=1;endArrow=ERoneToMany;rounded=0;strokeWidth=1;entryX=0.5;entryY=0;entryDx=0;entryDy=0;exitX=0.5;exitY=1;exitDx=0;exitDy=0;" parent="1" source="8UcQ6t5s3t05RQczVyrp-7" target="8UcQ6t5s3t05RQczVyrp-2" edge="1">
          <mxGeometry width="100" height="100" relative="1" as="geometry">
            <mxPoint x="540" y="670" as="sourcePoint" />
            <mxPoint x="400" y="640" as="targetPoint" />
          </mxGeometry>
        </mxCell>
        <mxCell id="8UcQ6t5s3t05RQczVyrp-7" value="THUOC" style="shape=associativeEntity;whiteSpace=wrap;html=1;align=center;" parent="1" vertex="1">
          <mxGeometry x="370" y="1000" width="140" height="60" as="geometry" />
        </mxCell>
        <mxCell id="8UcQ6t5s3t05RQczVyrp-9" value="BENAN" style="whiteSpace=wrap;html=1;align=center;" parent="1" vertex="1">
          <mxGeometry x="940" y="480" width="100" height="40" as="geometry" />
        </mxCell>
        <mxCell id="2kFU11TTKtFtzPKHdD4a-1" value="BENHNHAN" style="rounded=0;whiteSpace=wrap;html=1;" parent="1" vertex="1">
          <mxGeometry x="690" y="280" width="120" height="40" as="geometry" />
        </mxCell>
        <mxCell id="2kFU11TTKtFtzPKHdD4a-2" value="THEBAOHIEMYTE" style="rounded=0;whiteSpace=wrap;html=1;" parent="1" vertex="1">
          <mxGeometry x="360" y="280" width="120" height="40" as="geometry" />
        </mxCell>
        <mxCell id="2kFU11TTKtFtzPKHdD4a-3" value="CO" style="shape=rhombus;perimeter=rhombusPerimeter;whiteSpace=wrap;html=1;align=center;" parent="1" vertex="1">
          <mxGeometry x="520" y="270" width="120" height="60" as="geometry" />
        </mxCell>
        <mxCell id="2kFU11TTKtFtzPKHdD4a-4" value="" style="edgeStyle=entityRelationEdgeStyle;fontSize=12;html=1;endArrow=ERzeroToOne;endFill=1;rounded=0;entryX=1;entryY=0.5;entryDx=0;entryDy=0;exitX=0;exitY=0.5;exitDx=0;exitDy=0;" parent="1" source="2kFU11TTKtFtzPKHdD4a-3" target="2kFU11TTKtFtzPKHdD4a-2" edge="1">
          <mxGeometry width="100" height="100" relative="1" as="geometry">
            <mxPoint x="530" y="450" as="sourcePoint" />
            <mxPoint x="800" y="360" as="targetPoint" />
          </mxGeometry>
        </mxCell>
        <mxCell id="2kFU11TTKtFtzPKHdD4a-5" value="" style="edgeStyle=entityRelationEdgeStyle;fontSize=12;html=1;endArrow=ERmandOne;endFill=0;rounded=0;exitX=1;exitY=0.5;exitDx=0;exitDy=0;entryX=0;entryY=0.5;entryDx=0;entryDy=0;" parent="1" source="2kFU11TTKtFtzPKHdD4a-3" target="2kFU11TTKtFtzPKHdD4a-1" edge="1">
          <mxGeometry width="100" height="100" relative="1" as="geometry">
            <mxPoint x="700" y="460" as="sourcePoint" />
            <mxPoint x="800" y="360" as="targetPoint" />
          </mxGeometry>
        </mxCell>
        <mxCell id="2kFU11TTKtFtzPKHdD4a-7" value="GIAYNHAPVIEN" style="whiteSpace=wrap;html=1;align=center;" parent="1" vertex="1">
          <mxGeometry x="940" y="260" width="100" height="40" as="geometry" />
        </mxCell>
        <mxCell id="2kFU11TTKtFtzPKHdD4a-8" value="CO" style="shape=rhombus;perimeter=rhombusPerimeter;whiteSpace=wrap;html=1;align=center;" parent="1" vertex="1">
          <mxGeometry x="830" y="200" width="120" height="60" as="geometry" />
        </mxCell>
        <mxCell id="2kFU11TTKtFtzPKHdD4a-9" value="" style="edgeStyle=entityRelationEdgeStyle;fontSize=12;html=1;endArrow=ERoneToMany;strokeWidth=1;exitX=0.5;exitY=1;exitDx=0;exitDy=0;entryX=0;entryY=0.5;entryDx=0;entryDy=0;curved=1;" parent="1" source="2kFU11TTKtFtzPKHdD4a-8" target="2kFU11TTKtFtzPKHdD4a-7" edge="1">
          <mxGeometry width="100" height="100" relative="1" as="geometry">
            <mxPoint x="790" y="520" as="sourcePoint" />
            <mxPoint x="890" y="420" as="targetPoint" />
          </mxGeometry>
        </mxCell>
        <mxCell id="2kFU11TTKtFtzPKHdD4a-10" value="" style="edgeStyle=entityRelationEdgeStyle;fontSize=12;html=1;endArrow=ERmandOne;endFill=0;rounded=0;strokeWidth=1;exitX=0;exitY=0.5;exitDx=0;exitDy=0;entryX=1;entryY=0.5;entryDx=0;entryDy=0;" parent="1" source="2kFU11TTKtFtzPKHdD4a-8" target="2kFU11TTKtFtzPKHdD4a-1" edge="1">
          <mxGeometry width="100" height="100" relative="1" as="geometry">
            <mxPoint x="790" y="520" as="sourcePoint" />
            <mxPoint x="890" y="420" as="targetPoint" />
          </mxGeometry>
        </mxCell>
        <mxCell id="mZL1DNVRp_EJRZ2tBddl-1" value="BACSI" style="whiteSpace=wrap;html=1;align=center;" parent="1" vertex="1">
          <mxGeometry x="1270" y="380" width="100" height="40" as="geometry" />
        </mxCell>
        <mxCell id="mZL1DNVRp_EJRZ2tBddl-5" value="" style="edgeStyle=entityRelationEdgeStyle;fontSize=12;html=1;endArrow=ERoneToMany;strokeWidth=1;entryX=0.5;entryY=0;entryDx=0;entryDy=0;exitX=0;exitY=0.5;exitDx=0;exitDy=0;rounded=0;" parent="1" source="dmpwpv-LTENTHcDws4N1-26" target="mZL1DNVRp_EJRZ2tBddl-1" edge="1">
          <mxGeometry width="100" height="100" relative="1" as="geometry">
            <mxPoint x="1380" y="370" as="sourcePoint" />
            <mxPoint x="1250" y="330" as="targetPoint" />
          </mxGeometry>
        </mxCell>
        <mxCell id="mZL1DNVRp_EJRZ2tBddl-8" value="CAP" style="shape=rhombus;perimeter=rhombusPerimeter;whiteSpace=wrap;html=1;align=center;" parent="1" vertex="1">
          <mxGeometry x="1090" y="250" width="120" height="60" as="geometry" />
        </mxCell>
        <mxCell id="mZL1DNVRp_EJRZ2tBddl-10" value="" style="edgeStyle=entityRelationEdgeStyle;fontSize=12;html=1;endArrow=ERoneToMany;rounded=0;strokeWidth=1;entryX=1;entryY=0.5;entryDx=0;entryDy=0;exitX=0;exitY=0.5;exitDx=0;exitDy=0;" parent="1" source="mZL1DNVRp_EJRZ2tBddl-8" target="2kFU11TTKtFtzPKHdD4a-7" edge="1">
          <mxGeometry width="100" height="100" relative="1" as="geometry">
            <mxPoint x="1180" y="360" as="sourcePoint" />
            <mxPoint x="1220" y="420" as="targetPoint" />
          </mxGeometry>
        </mxCell>
        <mxCell id="mZL1DNVRp_EJRZ2tBddl-11" value="" style="edgeStyle=entityRelationEdgeStyle;fontSize=12;html=1;endArrow=ERmandOne;rounded=0;strokeWidth=1;exitX=1;exitY=0.5;exitDx=0;exitDy=0;" parent="1" source="mZL1DNVRp_EJRZ2tBddl-8" target="mZL1DNVRp_EJRZ2tBddl-1" edge="1">
          <mxGeometry width="100" height="100" relative="1" as="geometry">
            <mxPoint x="1020" y="490" as="sourcePoint" />
            <mxPoint x="1120" y="390" as="targetPoint" />
          </mxGeometry>
        </mxCell>
        <mxCell id="mZL1DNVRp_EJRZ2tBddl-15" style="edgeStyle=orthogonalEdgeStyle;rounded=0;orthogonalLoop=1;jettySize=auto;html=1;exitX=0.5;exitY=1;exitDx=0;exitDy=0;entryX=0.5;entryY=0;entryDx=0;entryDy=0;strokeWidth=1;endArrow=ERmandOne;endFill=0;" parent="1" source="mZL1DNVRp_EJRZ2tBddl-12" target="8UcQ6t5s3t05RQczVyrp-9" edge="1">
          <mxGeometry relative="1" as="geometry" />
        </mxCell>
        <mxCell id="mZL1DNVRp_EJRZ2tBddl-16" style="edgeStyle=orthogonalEdgeStyle;rounded=0;orthogonalLoop=1;jettySize=auto;html=1;entryX=0.5;entryY=1;entryDx=0;entryDy=0;strokeWidth=1;endArrow=ERmandOne;endFill=0;" parent="1" source="mZL1DNVRp_EJRZ2tBddl-12" target="2kFU11TTKtFtzPKHdD4a-7" edge="1">
          <mxGeometry relative="1" as="geometry" />
        </mxCell>
        <mxCell id="mZL1DNVRp_EJRZ2tBddl-12" value="CO" style="shape=rhombus;perimeter=rhombusPerimeter;whiteSpace=wrap;html=1;align=center;" parent="1" vertex="1">
          <mxGeometry x="930" y="400" width="120" height="50" as="geometry" />
        </mxCell>
        <mxCell id="LT9LTd2Vc-sQLzBkWIAc-1" value="TOATHUOC" style="whiteSpace=wrap;html=1;align=center;" parent="1" vertex="1">
          <mxGeometry x="1260" y="710" width="100" height="40" as="geometry" />
        </mxCell>
        <mxCell id="LT9LTd2Vc-sQLzBkWIAc-2" value="THUOC" style="whiteSpace=wrap;html=1;align=center;" parent="1" vertex="1">
          <mxGeometry x="1050" y="1050" width="100" height="40" as="geometry" />
        </mxCell>
        <mxCell id="LT9LTd2Vc-sQLzBkWIAc-3" value="CHITIETTOATHUOC" style="shape=associativeEntity;whiteSpace=wrap;html=1;align=center;" parent="1" vertex="1">
          <mxGeometry x="1210" y="1040" width="140" height="60" as="geometry" />
        </mxCell>
        <mxCell id="LT9LTd2Vc-sQLzBkWIAc-4" value="SOLUONG" style="ellipse;whiteSpace=wrap;html=1;align=center;" parent="1" vertex="1">
          <mxGeometry x="1160" y="1140" width="100" height="40" as="geometry" />
        </mxCell>
        <mxCell id="LT9LTd2Vc-sQLzBkWIAc-5" value="" style="edgeStyle=entityRelationEdgeStyle;fontSize=12;html=1;endArrow=ERoneToMany;rounded=0;strokeWidth=1;exitX=0;exitY=0.5;exitDx=0;exitDy=0;entryX=1;entryY=0.5;entryDx=0;entryDy=0;" parent="1" source="LT9LTd2Vc-sQLzBkWIAc-3" target="LT9LTd2Vc-sQLzBkWIAc-2" edge="1">
          <mxGeometry width="100" height="100" relative="1" as="geometry">
            <mxPoint x="1090" y="980" as="sourcePoint" />
            <mxPoint x="1190" y="880" as="targetPoint" />
          </mxGeometry>
        </mxCell>
        <mxCell id="LT9LTd2Vc-sQLzBkWIAc-6" value="" style="endArrow=none;html=1;rounded=0;strokeWidth=1;entryX=0.5;entryY=0;entryDx=0;entryDy=0;exitX=0.5;exitY=1;exitDx=0;exitDy=0;" parent="1" source="LT9LTd2Vc-sQLzBkWIAc-3" target="LT9LTd2Vc-sQLzBkWIAc-4" edge="1">
          <mxGeometry relative="1" as="geometry">
            <mxPoint x="1060" y="930" as="sourcePoint" />
            <mxPoint x="1220" y="930" as="targetPoint" />
          </mxGeometry>
        </mxCell>
        <mxCell id="LT9LTd2Vc-sQLzBkWIAc-7" value="" style="edgeStyle=entityRelationEdgeStyle;fontSize=12;html=1;endArrow=ERoneToMany;rounded=0;strokeWidth=1;exitX=0.5;exitY=0;exitDx=0;exitDy=0;entryX=0.5;entryY=1;entryDx=0;entryDy=0;" parent="1" source="LT9LTd2Vc-sQLzBkWIAc-3" target="LT9LTd2Vc-sQLzBkWIAc-1" edge="1">
          <mxGeometry width="100" height="100" relative="1" as="geometry">
            <mxPoint x="1000" y="910" as="sourcePoint" />
            <mxPoint x="1010" y="720" as="targetPoint" />
          </mxGeometry>
        </mxCell>
        <mxCell id="dmpwpv-LTENTHcDws4N1-12" value="THAYDOI" style="shape=associativeEntity;whiteSpace=wrap;html=1;align=center;" parent="1" vertex="1">
          <mxGeometry x="860" y="1040" width="140" height="60" as="geometry" />
        </mxCell>
        <mxCell id="dmpwpv-LTENTHcDws4N1-13" value="GIA" style="ellipse;whiteSpace=wrap;html=1;align=center;" parent="1" vertex="1">
          <mxGeometry x="810" y="1140" width="100" height="40" as="geometry" />
        </mxCell>
        <mxCell id="dmpwpv-LTENTHcDws4N1-14" value="NGAYTHAYDOI" style="ellipse;whiteSpace=wrap;html=1;align=center;" parent="1" vertex="1">
          <mxGeometry x="960" y="1140" width="100" height="40" as="geometry" />
        </mxCell>
        <mxCell id="dmpwpv-LTENTHcDws4N1-15" value="" style="edgeStyle=entityRelationEdgeStyle;fontSize=12;html=1;endArrow=ERoneToMany;rounded=0;strokeWidth=1;exitX=0;exitY=0.5;exitDx=0;exitDy=0;entryX=1;entryY=0.5;entryDx=0;entryDy=0;" parent="1" source="dmpwpv-LTENTHcDws4N1-12" target="8UcQ6t5s3t05RQczVyrp-1" edge="1">
          <mxGeometry width="100" height="100" relative="1" as="geometry">
            <mxPoint x="700" y="830" as="sourcePoint" />
            <mxPoint x="760" y="920" as="targetPoint" />
          </mxGeometry>
        </mxCell>
        <mxCell id="dmpwpv-LTENTHcDws4N1-16" value="" style="endArrow=none;html=1;rounded=0;strokeWidth=1;entryX=0.5;entryY=0;entryDx=0;entryDy=0;exitX=0.5;exitY=1;exitDx=0;exitDy=0;" parent="1" source="dmpwpv-LTENTHcDws4N1-12" target="dmpwpv-LTENTHcDws4N1-13" edge="1">
          <mxGeometry relative="1" as="geometry">
            <mxPoint x="710" y="930" as="sourcePoint" />
            <mxPoint x="870" y="930" as="targetPoint" />
          </mxGeometry>
        </mxCell>
        <mxCell id="dmpwpv-LTENTHcDws4N1-17" value="" style="endArrow=none;html=1;rounded=0;strokeWidth=1;entryX=0.5;entryY=0;entryDx=0;entryDy=0;exitX=1;exitY=1;exitDx=0;exitDy=0;" parent="1" source="dmpwpv-LTENTHcDws4N1-12" target="dmpwpv-LTENTHcDws4N1-14" edge="1">
          <mxGeometry relative="1" as="geometry">
            <mxPoint x="760" y="950" as="sourcePoint" />
            <mxPoint x="920" y="950" as="targetPoint" />
          </mxGeometry>
        </mxCell>
        <mxCell id="dmpwpv-LTENTHcDws4N1-18" value="" style="edgeStyle=entityRelationEdgeStyle;fontSize=12;html=1;endArrow=ERoneToMany;rounded=0;strokeWidth=1;exitX=1;exitY=0.5;exitDx=0;exitDy=0;entryX=0;entryY=0.5;entryDx=0;entryDy=0;" parent="1" source="dmpwpv-LTENTHcDws4N1-12" target="LT9LTd2Vc-sQLzBkWIAc-2" edge="1">
          <mxGeometry width="100" height="100" relative="1" as="geometry">
            <mxPoint x="740" y="1080" as="sourcePoint" />
            <mxPoint x="1070" y="1070" as="targetPoint" />
          </mxGeometry>
        </mxCell>
        <mxCell id="dmpwpv-LTENTHcDws4N1-22" value="KHOA" style="whiteSpace=wrap;html=1;align=center;" parent="1" vertex="1">
          <mxGeometry x="1500" y="200" width="100" height="40" as="geometry" />
        </mxCell>
        <mxCell id="dmpwpv-LTENTHcDws4N1-23" value="NGAYVAOLAM" style="ellipse;whiteSpace=wrap;html=1;align=center;" parent="1" vertex="1">
          <mxGeometry x="1720" y="320" width="100" height="40" as="geometry" />
        </mxCell>
        <mxCell id="dmpwpv-LTENTHcDws4N1-24" value="" style="endArrow=none;html=1;rounded=0;strokeWidth=1;entryX=0;entryY=0.5;entryDx=0;entryDy=0;exitX=1;exitY=0.5;exitDx=0;exitDy=0;" parent="1" source="dmpwpv-LTENTHcDws4N1-26" target="dmpwpv-LTENTHcDws4N1-23" edge="1">
          <mxGeometry relative="1" as="geometry">
            <mxPoint x="1680" y="360" as="sourcePoint" />
            <mxPoint x="1700" y="340" as="targetPoint" />
          </mxGeometry>
        </mxCell>
        <mxCell id="dmpwpv-LTENTHcDws4N1-25" value="" style="edgeStyle=entityRelationEdgeStyle;fontSize=12;html=1;endArrow=ERoneToMany;rounded=0;strokeWidth=1;entryX=0.5;entryY=1;entryDx=0;entryDy=0;exitX=0.5;exitY=0;exitDx=0;exitDy=0;" parent="1" source="dmpwpv-LTENTHcDws4N1-26" target="dmpwpv-LTENTHcDws4N1-22" edge="1">
          <mxGeometry width="100" height="100" relative="1" as="geometry">
            <mxPoint x="1700" y="440" as="sourcePoint" />
            <mxPoint x="1480" y="360" as="targetPoint" />
          </mxGeometry>
        </mxCell>
        <mxCell id="dmpwpv-LTENTHcDws4N1-26" value="THUOC" style="shape=associativeEntity;whiteSpace=wrap;html=1;align=center;" parent="1" vertex="1">
          <mxGeometry x="1540" y="320" width="140" height="60" as="geometry" />
        </mxCell>
        <mxCell id="dmpwpv-LTENTHcDws4N1-30" value="KHAM" style="shape=associativeEntity;whiteSpace=wrap;html=1;align=center;" parent="1" vertex="1">
          <mxGeometry x="1400" y="480" width="140" height="60" as="geometry" />
        </mxCell>
        <mxCell id="dmpwpv-LTENTHcDws4N1-31" value="" style="edgeStyle=entityRelationEdgeStyle;fontSize=12;html=1;endArrow=ERoneToMany;rounded=0;strokeWidth=1;entryX=0.5;entryY=1;entryDx=0;entryDy=0;exitX=0.5;exitY=0;exitDx=0;exitDy=0;" parent="1" source="dmpwpv-LTENTHcDws4N1-30" target="mZL1DNVRp_EJRZ2tBddl-1" edge="1">
          <mxGeometry width="100" height="100" relative="1" as="geometry">
            <mxPoint x="1140" y="615" as="sourcePoint" />
            <mxPoint x="1540" y="425" as="targetPoint" />
          </mxGeometry>
        </mxCell>
        <mxCell id="dmpwpv-LTENTHcDws4N1-35" value="" style="edgeStyle=entityRelationEdgeStyle;fontSize=12;html=1;endArrow=ERoneToMany;rounded=0;strokeWidth=1;exitX=0;exitY=0.5;exitDx=0;exitDy=0;entryX=1;entryY=0.5;entryDx=0;entryDy=0;" parent="1" source="dmpwpv-LTENTHcDws4N1-30" target="8UcQ6t5s3t05RQczVyrp-9" edge="1">
          <mxGeometry width="100" height="100" relative="1" as="geometry">
            <mxPoint x="920" y="610" as="sourcePoint" />
            <mxPoint x="1020" y="510" as="targetPoint" />
          </mxGeometry>
        </mxCell>
        <mxCell id="dmpwpv-LTENTHcDws4N1-36" value="NGAYKHAM" style="ellipse;whiteSpace=wrap;html=1;align=center;fontStyle=4;" parent="1" vertex="1">
          <mxGeometry x="1330" y="575" width="100" height="40" as="geometry" />
        </mxCell>
        <mxCell id="dmpwpv-LTENTHcDws4N1-37" value="" style="endArrow=none;html=1;rounded=0;strokeWidth=1;entryX=0.5;entryY=0;entryDx=0;entryDy=0;exitX=0.5;exitY=1;exitDx=0;exitDy=0;" parent="1" source="dmpwpv-LTENTHcDws4N1-30" target="dmpwpv-LTENTHcDws4N1-36" edge="1">
          <mxGeometry relative="1" as="geometry">
            <mxPoint x="1230" y="465" as="sourcePoint" />
            <mxPoint x="1390" y="465" as="targetPoint" />
          </mxGeometry>
        </mxCell>
        <mxCell id="dmpwpv-LTENTHcDws4N1-39" value="" style="edgeStyle=entityRelationEdgeStyle;fontSize=12;html=1;endArrow=ERmandOne;rounded=0;strokeWidth=1;entryX=0.75;entryY=1;entryDx=0;entryDy=0;exitX=0.5;exitY=0;exitDx=0;exitDy=0;" parent="1" source="jvZQxPPwsFTk-9ghkYt--4" target="dmpwpv-LTENTHcDws4N1-30" edge="1">
          <mxGeometry width="100" height="100" relative="1" as="geometry">
            <mxPoint x="1530" y="595" as="sourcePoint" />
            <mxPoint x="1360" y="415" as="targetPoint" />
          </mxGeometry>
        </mxCell>
        <mxCell id="dmpwpv-LTENTHcDws4N1-41" value="" style="edgeStyle=entityRelationEdgeStyle;fontSize=12;html=1;endArrow=ERmandOne;rounded=0;strokeWidth=1;entryX=0.5;entryY=0;entryDx=0;entryDy=0;exitX=0.5;exitY=1;exitDx=0;exitDy=0;" parent="1" source="jvZQxPPwsFTk-9ghkYt--4" target="LT9LTd2Vc-sQLzBkWIAc-1" edge="1">
          <mxGeometry width="100" height="100" relative="1" as="geometry">
            <mxPoint x="1530" y="635" as="sourcePoint" />
            <mxPoint x="1450" y="620" as="targetPoint" />
          </mxGeometry>
        </mxCell>
        <mxCell id="0rFXxPB3rN5FOBxdvrja-1" value="DICHVU" style="whiteSpace=wrap;html=1;align=center;" parent="1" vertex="1">
          <mxGeometry x="860" y="670" width="100" height="40" as="geometry" />
        </mxCell>
        <mxCell id="0rFXxPB3rN5FOBxdvrja-2" value="THAYDOI" style="shape=associativeEntity;whiteSpace=wrap;html=1;align=center;" parent="1" vertex="1">
          <mxGeometry x="680" y="660" width="140" height="60" as="geometry" />
        </mxCell>
        <mxCell id="0rFXxPB3rN5FOBxdvrja-4" value="NGAYAPDUNG" style="ellipse;whiteSpace=wrap;html=1;align=center;" parent="1" vertex="1">
          <mxGeometry x="800" y="760" width="100" height="40" as="geometry" />
        </mxCell>
        <mxCell id="0rFXxPB3rN5FOBxdvrja-5" value="" style="edgeStyle=entityRelationEdgeStyle;fontSize=12;html=1;endArrow=ERoneToMany;rounded=0;strokeWidth=1;exitX=0.5;exitY=1;exitDx=0;exitDy=0;entryX=0.5;entryY=0;entryDx=0;entryDy=0;" parent="1" source="0rFXxPB3rN5FOBxdvrja-2" target="8UcQ6t5s3t05RQczVyrp-1" edge="1">
          <mxGeometry width="100" height="100" relative="1" as="geometry">
            <mxPoint x="580" y="600" as="sourcePoint" />
            <mxPoint x="640" y="690" as="targetPoint" />
          </mxGeometry>
        </mxCell>
        <mxCell id="0rFXxPB3rN5FOBxdvrja-7" value="" style="endArrow=none;html=1;rounded=0;strokeWidth=1;entryX=0.5;entryY=0;entryDx=0;entryDy=0;exitX=1;exitY=1;exitDx=0;exitDy=0;" parent="1" source="0rFXxPB3rN5FOBxdvrja-2" target="0rFXxPB3rN5FOBxdvrja-4" edge="1">
          <mxGeometry relative="1" as="geometry">
            <mxPoint x="600" y="570" as="sourcePoint" />
            <mxPoint x="760" y="570" as="targetPoint" />
          </mxGeometry>
        </mxCell>
        <mxCell id="0rFXxPB3rN5FOBxdvrja-8" value="" style="edgeStyle=entityRelationEdgeStyle;fontSize=12;html=1;endArrow=ERoneToMany;rounded=0;strokeWidth=1;exitX=1;exitY=0.5;exitDx=0;exitDy=0;entryX=0;entryY=0.5;entryDx=0;entryDy=0;" parent="1" source="0rFXxPB3rN5FOBxdvrja-2" target="0rFXxPB3rN5FOBxdvrja-1" edge="1">
          <mxGeometry width="100" height="100" relative="1" as="geometry">
            <mxPoint x="580" y="700" as="sourcePoint" />
            <mxPoint x="680" y="600" as="targetPoint" />
          </mxGeometry>
        </mxCell>
        <mxCell id="0rFXxPB3rN5FOBxdvrja-9" value="GIA" style="ellipse;whiteSpace=wrap;html=1;align=center;" parent="1" vertex="1">
          <mxGeometry x="660" y="610" width="100" height="40" as="geometry" />
        </mxCell>
        <mxCell id="0rFXxPB3rN5FOBxdvrja-10" value="" style="endArrow=none;html=1;rounded=0;strokeWidth=1;entryX=0.5;entryY=1;entryDx=0;entryDy=0;exitX=0.5;exitY=0;exitDx=0;exitDy=0;" parent="1" source="0rFXxPB3rN5FOBxdvrja-2" target="0rFXxPB3rN5FOBxdvrja-9" edge="1">
          <mxGeometry relative="1" as="geometry">
            <mxPoint x="780" y="520" as="sourcePoint" />
            <mxPoint x="720" y="350" as="targetPoint" />
          </mxGeometry>
        </mxCell>
        <mxCell id="0rFXxPB3rN5FOBxdvrja-11" value="THUCHIEN" style="shape=associativeEntity;whiteSpace=wrap;html=1;align=center;" parent="1" vertex="1">
          <mxGeometry x="870" y="565" width="140" height="60" as="geometry" />
        </mxCell>
        <mxCell id="0rFXxPB3rN5FOBxdvrja-12" value="" style="edgeStyle=entityRelationEdgeStyle;fontSize=12;html=1;endArrow=ERoneToMany;strokeWidth=1;exitX=0.5;exitY=0;exitDx=0;exitDy=0;curved=1;entryX=0;entryY=1;entryDx=0;entryDy=0;" parent="1" source="0rFXxPB3rN5FOBxdvrja-11" target="dmpwpv-LTENTHcDws4N1-30" edge="1">
          <mxGeometry width="100" height="100" relative="1" as="geometry">
            <mxPoint x="830" y="600" as="sourcePoint" />
            <mxPoint x="940" y="530" as="targetPoint" />
          </mxGeometry>
        </mxCell>
        <mxCell id="0rFXxPB3rN5FOBxdvrja-14" value="" style="edgeStyle=entityRelationEdgeStyle;fontSize=12;html=1;endArrow=ERoneToMany;rounded=0;strokeWidth=1;entryX=0.5;entryY=0;entryDx=0;entryDy=0;exitX=0.5;exitY=1;exitDx=0;exitDy=0;" parent="1" source="0rFXxPB3rN5FOBxdvrja-11" target="0rFXxPB3rN5FOBxdvrja-1" edge="1">
          <mxGeometry width="100" height="100" relative="1" as="geometry">
            <mxPoint x="830" y="600" as="sourcePoint" />
            <mxPoint x="930" y="500" as="targetPoint" />
          </mxGeometry>
        </mxCell>
        <mxCell id="0rFXxPB3rN5FOBxdvrja-15" value="NGAY" style="ellipse;whiteSpace=wrap;html=1;align=center;" parent="1" vertex="1">
          <mxGeometry x="740" y="560" width="100" height="40" as="geometry" />
        </mxCell>
        <mxCell id="0rFXxPB3rN5FOBxdvrja-16" value="" style="endArrow=none;html=1;rounded=0;strokeWidth=1;entryX=1;entryY=0.5;entryDx=0;entryDy=0;exitX=0;exitY=0.5;exitDx=0;exitDy=0;" parent="1" source="0rFXxPB3rN5FOBxdvrja-11" target="0rFXxPB3rN5FOBxdvrja-15" edge="1">
          <mxGeometry relative="1" as="geometry">
            <mxPoint x="830" y="620" as="sourcePoint" />
            <mxPoint x="800" y="310" as="targetPoint" />
          </mxGeometry>
        </mxCell>
        <mxCell id="0rFXxPB3rN5FOBxdvrja-17" value="PHIEUTAMUNG" style="whiteSpace=wrap;html=1;align=center;" parent="1" vertex="1">
          <mxGeometry x="460" y="540" width="100" height="40" as="geometry" />
        </mxCell>
        <mxCell id="0rFXxPB3rN5FOBxdvrja-18" value="THUOC" style="shape=rhombus;perimeter=rhombusPerimeter;whiteSpace=wrap;html=1;align=center;" parent="1" vertex="1">
          <mxGeometry x="610" y="530" width="120" height="60" as="geometry" />
        </mxCell>
        <mxCell id="0rFXxPB3rN5FOBxdvrja-19" value="" style="edgeStyle=entityRelationEdgeStyle;fontSize=12;html=1;endArrow=ERmandOne;rounded=0;strokeWidth=1;entryX=0;entryY=0.5;entryDx=0;entryDy=0;exitX=1;exitY=0.5;exitDx=0;exitDy=0;" parent="1" source="0rFXxPB3rN5FOBxdvrja-18" target="8UcQ6t5s3t05RQczVyrp-9" edge="1">
          <mxGeometry width="100" height="100" relative="1" as="geometry">
            <mxPoint x="840" y="740" as="sourcePoint" />
            <mxPoint x="940" y="640" as="targetPoint" />
          </mxGeometry>
        </mxCell>
        <mxCell id="0rFXxPB3rN5FOBxdvrja-20" value="" style="edgeStyle=entityRelationEdgeStyle;fontSize=12;html=1;endArrow=ERoneToMany;rounded=0;strokeWidth=1;exitX=0;exitY=0.5;exitDx=0;exitDy=0;entryX=1;entryY=0.5;entryDx=0;entryDy=0;" parent="1" source="0rFXxPB3rN5FOBxdvrja-18" target="0rFXxPB3rN5FOBxdvrja-17" edge="1">
          <mxGeometry width="100" height="100" relative="1" as="geometry">
            <mxPoint x="840" y="740" as="sourcePoint" />
            <mxPoint x="940" y="640" as="targetPoint" />
          </mxGeometry>
        </mxCell>
        <mxCell id="0rFXxPB3rN5FOBxdvrja-21" value="LAP" style="shape=rhombus;perimeter=rhombusPerimeter;whiteSpace=wrap;html=1;align=center;" parent="1" vertex="1">
          <mxGeometry x="470" y="660" width="120" height="60" as="geometry" />
        </mxCell>
        <mxCell id="0rFXxPB3rN5FOBxdvrja-23" value="" style="edgeStyle=entityRelationEdgeStyle;fontSize=12;html=1;endArrow=ERmandOne;strokeWidth=1;entryX=0.25;entryY=0;entryDx=0;entryDy=0;exitX=0.5;exitY=1;exitDx=0;exitDy=0;curved=1;" parent="1" source="0rFXxPB3rN5FOBxdvrja-21" target="8UcQ6t5s3t05RQczVyrp-1" edge="1">
          <mxGeometry width="100" height="100" relative="1" as="geometry">
            <mxPoint x="770" y="740" as="sourcePoint" />
            <mxPoint x="870" y="640" as="targetPoint" />
          </mxGeometry>
        </mxCell>
        <mxCell id="0rFXxPB3rN5FOBxdvrja-24" value="" style="edgeStyle=entityRelationEdgeStyle;fontSize=12;html=1;endArrow=ERoneToMany;rounded=0;strokeWidth=1;exitX=0.5;exitY=0;exitDx=0;exitDy=0;entryX=0.5;entryY=1;entryDx=0;entryDy=0;" parent="1" source="0rFXxPB3rN5FOBxdvrja-21" target="0rFXxPB3rN5FOBxdvrja-17" edge="1">
          <mxGeometry width="100" height="100" relative="1" as="geometry">
            <mxPoint x="770" y="740" as="sourcePoint" />
            <mxPoint x="870" y="640" as="targetPoint" />
          </mxGeometry>
        </mxCell>
        <mxCell id="2YpjmctjcFLS5UC8NTwZ-1" value="PHONG" style="whiteSpace=wrap;html=1;align=center;" parent="1" vertex="1">
          <mxGeometry x="980" y="840" width="100" height="40" as="geometry" />
        </mxCell>
        <mxCell id="2YpjmctjcFLS5UC8NTwZ-3" value="THAYDOI" style="shape=associativeEntity;whiteSpace=wrap;html=1;align=center;" parent="1" vertex="1">
          <mxGeometry x="780" y="830" width="140" height="60" as="geometry" />
        </mxCell>
        <mxCell id="2YpjmctjcFLS5UC8NTwZ-4" value="GIA" style="ellipse;whiteSpace=wrap;html=1;align=center;" parent="1" vertex="1">
          <mxGeometry x="740" y="900" width="100" height="40" as="geometry" />
        </mxCell>
        <mxCell id="2YpjmctjcFLS5UC8NTwZ-5" value="NGAYTHAYDOI" style="ellipse;whiteSpace=wrap;html=1;align=center;" parent="1" vertex="1">
          <mxGeometry x="890" y="900" width="100" height="40" as="geometry" />
        </mxCell>
        <mxCell id="2YpjmctjcFLS5UC8NTwZ-6" value="" style="edgeStyle=entityRelationEdgeStyle;fontSize=12;html=1;endArrow=ERoneToMany;rounded=0;strokeWidth=1;exitX=0;exitY=0.5;exitDx=0;exitDy=0;entryX=1;entryY=0;entryDx=0;entryDy=0;" parent="1" source="2YpjmctjcFLS5UC8NTwZ-3" target="8UcQ6t5s3t05RQczVyrp-1" edge="1">
          <mxGeometry width="100" height="100" relative="1" as="geometry">
            <mxPoint x="730" y="780" as="sourcePoint" />
            <mxPoint x="810" y="869.9999999999998" as="targetPoint" />
          </mxGeometry>
        </mxCell>
        <mxCell id="2YpjmctjcFLS5UC8NTwZ-7" value="" style="endArrow=none;html=1;rounded=0;strokeWidth=1;entryX=0.5;entryY=0;entryDx=0;entryDy=0;exitX=0.5;exitY=1;exitDx=0;exitDy=0;" parent="1" source="2YpjmctjcFLS5UC8NTwZ-3" target="2YpjmctjcFLS5UC8NTwZ-4" edge="1">
          <mxGeometry relative="1" as="geometry">
            <mxPoint x="630" y="710" as="sourcePoint" />
            <mxPoint x="790" y="710" as="targetPoint" />
          </mxGeometry>
        </mxCell>
        <mxCell id="2YpjmctjcFLS5UC8NTwZ-8" value="" style="endArrow=none;html=1;rounded=0;strokeWidth=1;entryX=0.5;entryY=0;entryDx=0;entryDy=0;exitX=1;exitY=1;exitDx=0;exitDy=0;" parent="1" source="2YpjmctjcFLS5UC8NTwZ-3" target="2YpjmctjcFLS5UC8NTwZ-5" edge="1">
          <mxGeometry relative="1" as="geometry">
            <mxPoint x="680" y="730" as="sourcePoint" />
            <mxPoint x="840" y="730" as="targetPoint" />
          </mxGeometry>
        </mxCell>
        <mxCell id="2YpjmctjcFLS5UC8NTwZ-9" value="" style="edgeStyle=entityRelationEdgeStyle;fontSize=12;html=1;endArrow=ERoneToMany;rounded=0;strokeWidth=1;exitX=1;exitY=0.5;exitDx=0;exitDy=0;entryX=0;entryY=0.5;entryDx=0;entryDy=0;" parent="1" source="2YpjmctjcFLS5UC8NTwZ-3" target="2YpjmctjcFLS5UC8NTwZ-1" edge="1">
          <mxGeometry width="100" height="100" relative="1" as="geometry">
            <mxPoint x="660" y="860" as="sourcePoint" />
            <mxPoint x="760" y="760" as="targetPoint" />
          </mxGeometry>
        </mxCell>
        <mxCell id="l28nbeCHgFSwme0F-5Jf-1" value="GIUONG" style="whiteSpace=wrap;html=1;align=center;" parent="1" vertex="1">
          <mxGeometry x="1020" y="660" width="100" height="40" as="geometry" />
        </mxCell>
        <mxCell id="l28nbeCHgFSwme0F-5Jf-2" value="CO" style="shape=rhombus;perimeter=rhombusPerimeter;whiteSpace=wrap;html=1;align=center;" parent="1" vertex="1">
          <mxGeometry x="950" y="740" width="130" height="60" as="geometry" />
        </mxCell>
        <mxCell id="l28nbeCHgFSwme0F-5Jf-3" value="" style="edgeStyle=entityRelationEdgeStyle;fontSize=12;html=1;endArrow=ERoneToMany;rounded=0;strokeWidth=1;entryX=0;entryY=1;entryDx=0;entryDy=0;exitX=0.5;exitY=0;exitDx=0;exitDy=0;" parent="1" source="l28nbeCHgFSwme0F-5Jf-2" target="l28nbeCHgFSwme0F-5Jf-1" edge="1">
          <mxGeometry width="100" height="100" relative="1" as="geometry">
            <mxPoint x="800" y="720" as="sourcePoint" />
            <mxPoint x="900" y="620" as="targetPoint" />
          </mxGeometry>
        </mxCell>
        <mxCell id="l28nbeCHgFSwme0F-5Jf-4" value="" style="edgeStyle=entityRelationEdgeStyle;fontSize=12;html=1;endArrow=ERone;endFill=1;rounded=0;strokeWidth=1;exitX=0.5;exitY=1;exitDx=0;exitDy=0;entryX=0.5;entryY=0;entryDx=0;entryDy=0;" parent="1" source="l28nbeCHgFSwme0F-5Jf-2" target="2YpjmctjcFLS5UC8NTwZ-1" edge="1">
          <mxGeometry width="100" height="100" relative="1" as="geometry">
            <mxPoint x="800" y="720" as="sourcePoint" />
            <mxPoint x="890" y="780" as="targetPoint" />
          </mxGeometry>
        </mxCell>
        <mxCell id="l28nbeCHgFSwme0F-5Jf-6" value="CO" style="shape=associativeEntity;whiteSpace=wrap;html=1;align=center;" parent="1" vertex="1">
          <mxGeometry x="1030" y="575" width="140" height="60" as="geometry" />
        </mxCell>
        <mxCell id="l28nbeCHgFSwme0F-5Jf-7" value="" style="edgeStyle=entityRelationEdgeStyle;fontSize=12;html=1;endArrow=ERoneToMany;strokeWidth=1;curved=1;exitX=0.5;exitY=0;exitDx=0;exitDy=0;entryX=1;entryY=1;entryDx=0;entryDy=0;" parent="1" source="l28nbeCHgFSwme0F-5Jf-6" target="8UcQ6t5s3t05RQczVyrp-9" edge="1">
          <mxGeometry width="100" height="100" relative="1" as="geometry">
            <mxPoint x="1280" y="620" as="sourcePoint" />
            <mxPoint x="1380" y="520" as="targetPoint" />
          </mxGeometry>
        </mxCell>
        <mxCell id="l28nbeCHgFSwme0F-5Jf-10" value="" style="edgeStyle=entityRelationEdgeStyle;fontSize=12;html=1;endArrow=ERoneToMany;strokeWidth=1;curved=1;exitX=0.5;exitY=1;exitDx=0;exitDy=0;entryX=0.5;entryY=0;entryDx=0;entryDy=0;" parent="1" source="l28nbeCHgFSwme0F-5Jf-6" target="l28nbeCHgFSwme0F-5Jf-1" edge="1">
          <mxGeometry width="100" height="100" relative="1" as="geometry">
            <mxPoint x="1210" y="655" as="sourcePoint" />
            <mxPoint x="1170" y="630" as="targetPoint" />
          </mxGeometry>
        </mxCell>
        <mxCell id="l28nbeCHgFSwme0F-5Jf-12" value="NGAYNHANGIUON" style="ellipse;whiteSpace=wrap;html=1;align=center;" parent="1" vertex="1">
          <mxGeometry x="1150" y="660" width="120" height="40" as="geometry" />
        </mxCell>
        <mxCell id="l28nbeCHgFSwme0F-5Jf-13" value="" style="endArrow=none;html=1;rounded=0;strokeWidth=1;curved=1;exitX=1;exitY=1;exitDx=0;exitDy=0;entryX=0.5;entryY=0;entryDx=0;entryDy=0;" parent="1" source="l28nbeCHgFSwme0F-5Jf-6" target="l28nbeCHgFSwme0F-5Jf-12" edge="1">
          <mxGeometry relative="1" as="geometry">
            <mxPoint x="1250" y="690" as="sourcePoint" />
            <mxPoint x="1410" y="690" as="targetPoint" />
          </mxGeometry>
        </mxCell>
        <mxCell id="l28nbeCHgFSwme0F-5Jf-14" value="PHIEUXUATVIIEN" style="whiteSpace=wrap;html=1;align=center;" parent="1" vertex="1">
          <mxGeometry x="345" y="490" width="100" height="40" as="geometry" />
        </mxCell>
        <mxCell id="l28nbeCHgFSwme0F-5Jf-15" value="THUOC" style="shape=rhombus;perimeter=rhombusPerimeter;whiteSpace=wrap;html=1;align=center;" parent="1" vertex="1">
          <mxGeometry x="540" y="480" width="120" height="60" as="geometry" />
        </mxCell>
        <mxCell id="l28nbeCHgFSwme0F-5Jf-16" value="" style="edgeStyle=entityRelationEdgeStyle;fontSize=12;html=1;endArrow=ERmandOne;strokeWidth=1;curved=1;exitX=1;exitY=0.5;exitDx=0;exitDy=0;entryX=0;entryY=0.25;entryDx=0;entryDy=0;" parent="1" source="l28nbeCHgFSwme0F-5Jf-15" target="8UcQ6t5s3t05RQczVyrp-9" edge="1">
          <mxGeometry width="100" height="100" relative="1" as="geometry">
            <mxPoint x="850" y="520" as="sourcePoint" />
            <mxPoint x="950" y="420" as="targetPoint" />
          </mxGeometry>
        </mxCell>
        <mxCell id="l28nbeCHgFSwme0F-5Jf-17" value="" style="edgeStyle=entityRelationEdgeStyle;fontSize=12;html=1;endArrow=ERmandOne;strokeWidth=1;curved=1;entryX=1;entryY=0.5;entryDx=0;entryDy=0;exitX=0;exitY=0.5;exitDx=0;exitDy=0;" parent="1" source="l28nbeCHgFSwme0F-5Jf-15" target="l28nbeCHgFSwme0F-5Jf-14" edge="1">
          <mxGeometry width="100" height="100" relative="1" as="geometry">
            <mxPoint x="535" y="520" as="sourcePoint" />
            <mxPoint x="955" y="490" as="targetPoint" />
          </mxGeometry>
        </mxCell>
        <mxCell id="l28nbeCHgFSwme0F-5Jf-18" value="LAP" style="shape=rhombus;perimeter=rhombusPerimeter;whiteSpace=wrap;html=1;align=center;" parent="1" vertex="1">
          <mxGeometry x="330" y="670" width="120" height="60" as="geometry" />
        </mxCell>
        <mxCell id="l28nbeCHgFSwme0F-5Jf-20" value="" style="edgeStyle=entityRelationEdgeStyle;fontSize=12;html=1;endArrow=ERmandOne;strokeWidth=1;curved=1;exitX=0.5;exitY=1;exitDx=0;exitDy=0;entryX=0;entryY=0;entryDx=0;entryDy=0;" parent="1" source="l28nbeCHgFSwme0F-5Jf-18" target="8UcQ6t5s3t05RQczVyrp-1" edge="1">
          <mxGeometry width="100" height="100" relative="1" as="geometry">
            <mxPoint x="850" y="670" as="sourcePoint" />
            <mxPoint x="950" y="570" as="targetPoint" />
          </mxGeometry>
        </mxCell>
        <mxCell id="l28nbeCHgFSwme0F-5Jf-22" value="" style="edgeStyle=entityRelationEdgeStyle;fontSize=12;html=1;endArrow=ERoneToMany;strokeWidth=1;curved=1;entryX=0.5;entryY=1;entryDx=0;entryDy=0;exitX=0.5;exitY=0;exitDx=0;exitDy=0;" parent="1" source="l28nbeCHgFSwme0F-5Jf-18" target="l28nbeCHgFSwme0F-5Jf-14" edge="1">
          <mxGeometry width="100" height="100" relative="1" as="geometry">
            <mxPoint x="850" y="810" as="sourcePoint" />
            <mxPoint x="950" y="710" as="targetPoint" />
          </mxGeometry>
        </mxCell>
        <mxCell id="l28nbeCHgFSwme0F-5Jf-23" value="TRONVIEN" style="whiteSpace=wrap;html=1;align=center;" parent="1" vertex="1">
          <mxGeometry x="360" y="390" width="100" height="40" as="geometry" />
        </mxCell>
        <mxCell id="l28nbeCHgFSwme0F-5Jf-27" value="TRON" style="shape=rhombus;perimeter=rhombusPerimeter;whiteSpace=wrap;html=1;align=center;" parent="1" vertex="1">
          <mxGeometry x="550" y="390" width="120" height="60" as="geometry" />
        </mxCell>
        <mxCell id="l28nbeCHgFSwme0F-5Jf-29" value="" style="edgeStyle=entityRelationEdgeStyle;fontSize=12;html=1;endArrow=ERmandOne;strokeWidth=1;curved=1;exitX=1;exitY=0.5;exitDx=0;exitDy=0;entryX=0;entryY=0;entryDx=0;entryDy=0;" parent="1" source="l28nbeCHgFSwme0F-5Jf-27" target="8UcQ6t5s3t05RQczVyrp-9" edge="1">
          <mxGeometry width="100" height="100" relative="1" as="geometry">
            <mxPoint x="850" y="670" as="sourcePoint" />
            <mxPoint x="950" y="570" as="targetPoint" />
          </mxGeometry>
        </mxCell>
        <mxCell id="l28nbeCHgFSwme0F-5Jf-30" value="" style="edgeStyle=entityRelationEdgeStyle;fontSize=12;html=1;endArrow=ERoneToMany;strokeWidth=1;curved=1;entryX=1;entryY=0.25;entryDx=0;entryDy=0;exitX=0;exitY=0.5;exitDx=0;exitDy=0;" parent="1" source="l28nbeCHgFSwme0F-5Jf-27" target="l28nbeCHgFSwme0F-5Jf-23" edge="1">
          <mxGeometry width="100" height="100" relative="1" as="geometry">
            <mxPoint x="850" y="670" as="sourcePoint" />
            <mxPoint x="950" y="570" as="targetPoint" />
          </mxGeometry>
        </mxCell>
        <mxCell id="jvZQxPPwsFTk-9ghkYt--1" value="KETQUAKHAM" style="ellipse;whiteSpace=wrap;html=1;" parent="1" vertex="1">
          <mxGeometry x="1530" y="420" width="120" height="60" as="geometry" />
        </mxCell>
        <mxCell id="jvZQxPPwsFTk-9ghkYt--4" value="CO" style="shape=rhombus;perimeter=rhombusPerimeter;whiteSpace=wrap;html=1;align=center;" parent="1" vertex="1">
          <mxGeometry x="1560" y="580" width="120" height="60" as="geometry" />
        </mxCell>
        <mxCell id="jvZQxPPwsFTk-9ghkYt--7" value="GIA" style="ellipse;whiteSpace=wrap;html=1;align=center;" parent="1" vertex="1">
          <mxGeometry x="1280" y="1140" width="100" height="40" as="geometry" />
        </mxCell>
        <mxCell id="jvZQxPPwsFTk-9ghkYt--8" value="" style="endArrow=none;html=1;rounded=0;entryX=0.5;entryY=0;entryDx=0;entryDy=0;exitX=0.75;exitY=1;exitDx=0;exitDy=0;" parent="1" source="LT9LTd2Vc-sQLzBkWIAc-3" target="jvZQxPPwsFTk-9ghkYt--7" edge="1">
          <mxGeometry relative="1" as="geometry">
            <mxPoint x="1010" y="880" as="sourcePoint" />
            <mxPoint x="1170" y="880" as="targetPoint" />
          </mxGeometry>
        </mxCell>
        <mxCell id="jvZQxPPwsFTk-9ghkYt--9" value="NGAYTRA" style="ellipse;whiteSpace=wrap;html=1;align=center;" parent="1" vertex="1">
          <mxGeometry x="1230" y="590" width="100" height="40" as="geometry" />
        </mxCell>
        <mxCell id="jvZQxPPwsFTk-9ghkYt--10" value="" style="endArrow=none;html=1;rounded=0;exitX=1;exitY=0.5;exitDx=0;exitDy=0;entryX=0;entryY=0.5;entryDx=0;entryDy=0;" parent="1" source="l28nbeCHgFSwme0F-5Jf-6" target="jvZQxPPwsFTk-9ghkYt--9" edge="1">
          <mxGeometry relative="1" as="geometry">
            <mxPoint x="700" y="780" as="sourcePoint" />
            <mxPoint x="860" y="780" as="targetPoint" />
          </mxGeometry>
        </mxCell>
        <mxCell id="ZgzFK__wEIKfUJZdbTwC-3" style="edgeStyle=orthogonalEdgeStyle;rounded=0;orthogonalLoop=1;jettySize=auto;html=1;exitX=0.5;exitY=1;exitDx=0;exitDy=0;entryX=0.5;entryY=0;entryDx=0;entryDy=0;strokeWidth=1;endArrow=ERmandOne;endFill=0;" parent="1" source="ZgzFK__wEIKfUJZdbTwC-4" edge="1">
          <mxGeometry relative="1" as="geometry">
            <mxPoint x="990" y="480" as="targetPoint" />
          </mxGeometry>
        </mxCell>
        <mxCell id="ZgzFK__wEIKfUJZdbTwC-4" value="CO" style="shape=rhombus;perimeter=rhombusPerimeter;whiteSpace=wrap;html=1;align=center;" parent="1" vertex="1">
          <mxGeometry x="930" y="400" width="120" height="50" as="geometry" />
        </mxCell>
        <mxCell id="h99x_i1L1_dF-LCjZlA--1" value="KHAM" style="shape=associativeEntity;whiteSpace=wrap;html=1;align=center;" parent="1" vertex="1">
          <mxGeometry x="1400" y="480" width="140" height="60" as="geometry" />
        </mxCell>
        <mxCell id="h99x_i1L1_dF-LCjZlA--2" value="" style="endArrow=none;html=1;rounded=0;strokeWidth=1;entryX=0.5;entryY=0;entryDx=0;entryDy=0;exitX=0.5;exitY=1;exitDx=0;exitDy=0;" parent="1" source="h99x_i1L1_dF-LCjZlA--1" target="h99x_i1L1_dF-LCjZlA--3" edge="1">
          <mxGeometry relative="1" as="geometry">
            <mxPoint x="1230" y="465" as="sourcePoint" />
            <mxPoint x="1390" y="465" as="targetPoint" />
          </mxGeometry>
        </mxCell>
        <mxCell id="h99x_i1L1_dF-LCjZlA--3" value="NGAYKHAM" style="ellipse;whiteSpace=wrap;html=1;align=center;fontStyle=4;" parent="1" vertex="1">
          <mxGeometry x="1330" y="575" width="100" height="40" as="geometry" />
        </mxCell>
        <mxCell id="h99x_i1L1_dF-LCjZlA--4" value="" style="edgeStyle=entityRelationEdgeStyle;fontSize=12;html=1;endArrow=ERoneToMany;rounded=0;strokeWidth=1;exitX=0;exitY=0.5;exitDx=0;exitDy=0;entryX=1;entryY=0.5;entryDx=0;entryDy=0;" parent="1" source="h99x_i1L1_dF-LCjZlA--1" edge="1">
          <mxGeometry width="100" height="100" relative="1" as="geometry">
            <mxPoint x="920" y="610" as="sourcePoint" />
            <mxPoint x="1040" y="500" as="targetPoint" />
          </mxGeometry>
        </mxCell>
        <mxCell id="_kUIzNEnPQkl8Nsc3zAk-1" value="THUOC" style="whiteSpace=wrap;html=1;align=center;" parent="1" vertex="1">
          <mxGeometry x="1050" y="1050" width="100" height="40" as="geometry" />
        </mxCell>
        <mxCell id="_kUIzNEnPQkl8Nsc3zAk-2" value="CHITIETTOATHUOC" style="shape=associativeEntity;whiteSpace=wrap;html=1;align=center;" parent="1" vertex="1">
          <mxGeometry x="1210" y="1040" width="140" height="60" as="geometry" />
        </mxCell>
        <mxCell id="_kUIzNEnPQkl8Nsc3zAk-3" value="SOLUONG" style="ellipse;whiteSpace=wrap;html=1;align=center;" parent="1" vertex="1">
          <mxGeometry x="1160" y="1140" width="100" height="40" as="geometry" />
        </mxCell>
        <mxCell id="_kUIzNEnPQkl8Nsc3zAk-4" value="" style="edgeStyle=entityRelationEdgeStyle;fontSize=12;html=1;endArrow=ERoneToMany;rounded=0;strokeWidth=1;exitX=0;exitY=0.5;exitDx=0;exitDy=0;entryX=1;entryY=0.5;entryDx=0;entryDy=0;" parent="1" source="_kUIzNEnPQkl8Nsc3zAk-2" target="_kUIzNEnPQkl8Nsc3zAk-1" edge="1">
          <mxGeometry width="100" height="100" relative="1" as="geometry">
            <mxPoint x="1090" y="980" as="sourcePoint" />
            <mxPoint x="1190" y="880" as="targetPoint" />
          </mxGeometry>
        </mxCell>
        <mxCell id="_kUIzNEnPQkl8Nsc3zAk-5" value="" style="endArrow=none;html=1;rounded=0;strokeWidth=1;entryX=0.5;entryY=0;entryDx=0;entryDy=0;exitX=0.5;exitY=1;exitDx=0;exitDy=0;" parent="1" source="_kUIzNEnPQkl8Nsc3zAk-2" target="_kUIzNEnPQkl8Nsc3zAk-3" edge="1">
          <mxGeometry relative="1" as="geometry">
            <mxPoint x="1060" y="930" as="sourcePoint" />
            <mxPoint x="1220" y="930" as="targetPoint" />
          </mxGeometry>
        </mxCell>
        <mxCell id="_kUIzNEnPQkl8Nsc3zAk-6" value="THAYDOI" style="shape=associativeEntity;whiteSpace=wrap;html=1;align=center;" parent="1" vertex="1">
          <mxGeometry x="860" y="1040" width="140" height="60" as="geometry" />
        </mxCell>
        <mxCell id="_kUIzNEnPQkl8Nsc3zAk-7" value="NGAYTHAYDOI" style="ellipse;whiteSpace=wrap;html=1;align=center;" parent="1" vertex="1">
          <mxGeometry x="960" y="1140" width="100" height="40" as="geometry" />
        </mxCell>
        <mxCell id="_kUIzNEnPQkl8Nsc3zAk-8" value="" style="endArrow=none;html=1;rounded=0;strokeWidth=1;entryX=0.5;entryY=0;entryDx=0;entryDy=0;exitX=0.5;exitY=1;exitDx=0;exitDy=0;" parent="1" source="_kUIzNEnPQkl8Nsc3zAk-6" edge="1">
          <mxGeometry relative="1" as="geometry">
            <mxPoint x="710" y="930" as="sourcePoint" />
            <mxPoint x="860" y="1139.9999999999998" as="targetPoint" />
          </mxGeometry>
        </mxCell>
        <mxCell id="_kUIzNEnPQkl8Nsc3zAk-9" value="" style="endArrow=none;html=1;rounded=0;strokeWidth=1;entryX=0.5;entryY=0;entryDx=0;entryDy=0;exitX=1;exitY=1;exitDx=0;exitDy=0;" parent="1" source="_kUIzNEnPQkl8Nsc3zAk-6" target="_kUIzNEnPQkl8Nsc3zAk-7" edge="1">
          <mxGeometry relative="1" as="geometry">
            <mxPoint x="760" y="950" as="sourcePoint" />
            <mxPoint x="920" y="950" as="targetPoint" />
          </mxGeometry>
        </mxCell>
        <mxCell id="_kUIzNEnPQkl8Nsc3zAk-10" value="" style="edgeStyle=entityRelationEdgeStyle;fontSize=12;html=1;endArrow=ERoneToMany;rounded=0;strokeWidth=1;exitX=1;exitY=0.5;exitDx=0;exitDy=0;entryX=0;entryY=0.5;entryDx=0;entryDy=0;" parent="1" source="_kUIzNEnPQkl8Nsc3zAk-6" target="_kUIzNEnPQkl8Nsc3zAk-1" edge="1">
          <mxGeometry width="100" height="100" relative="1" as="geometry">
            <mxPoint x="740" y="1080" as="sourcePoint" />
            <mxPoint x="1070" y="1070" as="targetPoint" />
          </mxGeometry>
        </mxCell>
        <mxCell id="_kUIzNEnPQkl8Nsc3zAk-11" value="GIA" style="ellipse;whiteSpace=wrap;html=1;align=center;" parent="1" vertex="1">
          <mxGeometry x="1280" y="1140" width="100" height="40" as="geometry" />
        </mxCell>
        <mxCell id="_kUIzNEnPQkl8Nsc3zAk-12" value="" style="endArrow=none;html=1;rounded=0;entryX=0.5;entryY=0;entryDx=0;entryDy=0;exitX=0.75;exitY=1;exitDx=0;exitDy=0;" parent="1" source="_kUIzNEnPQkl8Nsc3zAk-2" target="_kUIzNEnPQkl8Nsc3zAk-11" edge="1">
          <mxGeometry relative="1" as="geometry">
            <mxPoint x="1010" y="880" as="sourcePoint" />
            <mxPoint x="1170" y="880" as="targetPoint" />
          </mxGeometry>
        </mxCell>
      </root>
    </mxGraphModel>
  </diagram>
  <diagram id="cR6gFQ6wust48-f65RaV" name="Trang-3">
    <mxGraphModel dx="4088" dy="1872" grid="1" gridSize="10" guides="1" tooltips="1" connect="1" arrows="1" fold="1" page="1" pageScale="1" pageWidth="3300" pageHeight="4681" math="0" shadow="0">
      <root>
        <mxCell id="0" />
        <mxCell id="1" parent="0" />
        <mxCell id="FHmFIX5hyPcaEQ4ioB96-1" value="BENHNHAN" style="rounded=0;whiteSpace=wrap;html=1;" parent="1" vertex="1">
          <mxGeometry x="2690" y="120" width="120" height="60" as="geometry" />
        </mxCell>
        <mxCell id="FHmFIX5hyPcaEQ4ioB96-2" value="THEBAOHIEMYTE" style="rounded=0;whiteSpace=wrap;html=1;" parent="1" vertex="1">
          <mxGeometry x="1930" y="120" width="120" height="60" as="geometry" />
        </mxCell>
        <mxCell id="FHmFIX5hyPcaEQ4ioB96-3" value="CO" style="shape=rhombus;perimeter=rhombusPerimeter;whiteSpace=wrap;html=1;align=center;" parent="1" vertex="1">
          <mxGeometry x="2290" y="115" width="120" height="60" as="geometry" />
        </mxCell>
        <mxCell id="FHmFIX5hyPcaEQ4ioB96-4" value="" style="edgeStyle=entityRelationEdgeStyle;fontSize=12;html=1;endArrow=ERzeroToOne;endFill=1;rounded=0;entryX=1;entryY=0.5;entryDx=0;entryDy=0;exitX=0;exitY=0.5;exitDx=0;exitDy=0;" parent="1" source="FHmFIX5hyPcaEQ4ioB96-3" target="FHmFIX5hyPcaEQ4ioB96-2" edge="1">
          <mxGeometry width="100" height="100" relative="1" as="geometry">
            <mxPoint x="1530" y="630" as="sourcePoint" />
            <mxPoint x="1800" y="540" as="targetPoint" />
          </mxGeometry>
        </mxCell>
        <mxCell id="FHmFIX5hyPcaEQ4ioB96-5" value="" style="edgeStyle=entityRelationEdgeStyle;fontSize=12;html=1;endArrow=ERmandOne;endFill=0;rounded=0;exitX=1;exitY=0.5;exitDx=0;exitDy=0;" parent="1" source="FHmFIX5hyPcaEQ4ioB96-3" target="FHmFIX5hyPcaEQ4ioB96-1" edge="1">
          <mxGeometry width="100" height="100" relative="1" as="geometry">
            <mxPoint x="1700" y="640" as="sourcePoint" />
            <mxPoint x="1690" y="480" as="targetPoint" />
          </mxGeometry>
        </mxCell>
        <mxCell id="FHmFIX5hyPcaEQ4ioB96-6" value="GIAYNHAPVIEN" style="whiteSpace=wrap;html=1;align=center;" parent="1" vertex="1">
          <mxGeometry x="2700" y="470" width="100" height="60" as="geometry" />
        </mxCell>
        <mxCell id="FHmFIX5hyPcaEQ4ioB96-7" value="CO" style="shape=rhombus;perimeter=rhombusPerimeter;whiteSpace=wrap;html=1;align=center;" parent="1" vertex="1">
          <mxGeometry x="2690" y="310" width="120" height="60" as="geometry" />
        </mxCell>
        <mxCell id="FHmFIX5hyPcaEQ4ioB96-8" value="" style="fontSize=12;html=1;endArrow=ERoneToMany;strokeWidth=1;exitX=0.5;exitY=1;exitDx=0;exitDy=0;entryX=0.5;entryY=0;entryDx=0;entryDy=0;rounded=0;" parent="1" source="FHmFIX5hyPcaEQ4ioB96-7" target="FHmFIX5hyPcaEQ4ioB96-6" edge="1">
          <mxGeometry width="100" height="100" relative="1" as="geometry">
            <mxPoint x="1890" y="860" as="sourcePoint" />
            <mxPoint x="1990" y="760" as="targetPoint" />
          </mxGeometry>
        </mxCell>
        <mxCell id="FHmFIX5hyPcaEQ4ioB96-10" value="CAP" style="shape=rhombus;perimeter=rhombusPerimeter;whiteSpace=wrap;html=1;align=center;" parent="1" vertex="1">
          <mxGeometry x="2300" y="470" width="120" height="60" as="geometry" />
        </mxCell>
        <mxCell id="FHmFIX5hyPcaEQ4ioB96-11" value="" style="edgeStyle=entityRelationEdgeStyle;fontSize=12;html=1;endArrow=ERoneToMany;rounded=0;strokeWidth=1;entryX=0;entryY=0.5;entryDx=0;entryDy=0;exitX=1;exitY=0.5;exitDx=0;exitDy=0;" parent="1" source="FHmFIX5hyPcaEQ4ioB96-10" target="FHmFIX5hyPcaEQ4ioB96-6" edge="1">
          <mxGeometry width="100" height="100" relative="1" as="geometry">
            <mxPoint x="2280" y="700" as="sourcePoint" />
            <mxPoint x="2320" y="760" as="targetPoint" />
          </mxGeometry>
        </mxCell>
        <mxCell id="FHmFIX5hyPcaEQ4ioB96-12" value="" style="edgeStyle=entityRelationEdgeStyle;fontSize=12;html=1;endArrow=ERmandOne;rounded=0;strokeWidth=1;exitX=0;exitY=0.5;exitDx=0;exitDy=0;entryX=1;entryY=0.25;entryDx=0;entryDy=0;" parent="1" source="FHmFIX5hyPcaEQ4ioB96-10" target="Ici6xvGNjJe0Fm8LB-4U-1" edge="1">
          <mxGeometry width="100" height="100" relative="1" as="geometry">
            <mxPoint x="2120" y="830" as="sourcePoint" />
            <mxPoint x="1500" y="800" as="targetPoint" />
          </mxGeometry>
        </mxCell>
        <mxCell id="FHmFIX5hyPcaEQ4ioB96-13" value="" style="fontSize=12;html=1;endArrow=ERmandOne;rounded=0;exitX=0.5;exitY=0;exitDx=0;exitDy=0;" parent="1" source="FHmFIX5hyPcaEQ4ioB96-7" target="FHmFIX5hyPcaEQ4ioB96-1" edge="1">
          <mxGeometry width="100" height="100" relative="1" as="geometry">
            <mxPoint x="1760" y="630" as="sourcePoint" />
            <mxPoint x="1860" y="530" as="targetPoint" />
          </mxGeometry>
        </mxCell>
        <mxCell id="Ici6xvGNjJe0Fm8LB-4U-1" value="NHANVIEN" style="whiteSpace=wrap;html=1;align=center;" parent="1" vertex="1">
          <mxGeometry x="1340" y="990" width="100" height="60" as="geometry" />
        </mxCell>
        <mxCell id="QuH1iGlzTcQ91HS6C5MP-1" value="" style="edgeStyle=entityRelationEdgeStyle;fontSize=12;html=1;endArrow=ERoneToMany;strokeWidth=1;exitX=1;exitY=0.5;exitDx=0;exitDy=0;rounded=0;" parent="1" source="QuH1iGlzTcQ91HS6C5MP-6" edge="1">
          <mxGeometry width="100" height="100" relative="1" as="geometry">
            <mxPoint x="820" y="830" as="sourcePoint" />
            <mxPoint x="1380" y="1050" as="targetPoint" />
          </mxGeometry>
        </mxCell>
        <mxCell id="QuH1iGlzTcQ91HS6C5MP-2" value="PHONGBAN" style="whiteSpace=wrap;html=1;align=center;" parent="1" vertex="1">
          <mxGeometry x="1170" y="1480" width="100" height="40" as="geometry" />
        </mxCell>
        <mxCell id="QuH1iGlzTcQ91HS6C5MP-3" value="NGAYVAOLAM" style="ellipse;whiteSpace=wrap;html=1;align=center;" parent="1" vertex="1">
          <mxGeometry x="900" y="1480" width="100" height="40" as="geometry" />
        </mxCell>
        <mxCell id="QuH1iGlzTcQ91HS6C5MP-4" value="" style="endArrow=none;html=1;rounded=0;strokeWidth=1;entryX=1;entryY=0;entryDx=0;entryDy=0;exitX=0.5;exitY=1;exitDx=0;exitDy=0;" parent="1" source="QuH1iGlzTcQ91HS6C5MP-6" target="QuH1iGlzTcQ91HS6C5MP-3" edge="1">
          <mxGeometry relative="1" as="geometry">
            <mxPoint x="1030" y="1290" as="sourcePoint" />
            <mxPoint x="1140" y="800" as="targetPoint" />
          </mxGeometry>
        </mxCell>
        <mxCell id="QuH1iGlzTcQ91HS6C5MP-5" value="" style="fontSize=12;html=1;endArrow=ERoneToMany;rounded=0;strokeWidth=1;entryX=0.5;entryY=0;entryDx=0;entryDy=0;exitX=0.5;exitY=1;exitDx=0;exitDy=0;" parent="1" source="QuH1iGlzTcQ91HS6C5MP-6" target="QuH1iGlzTcQ91HS6C5MP-2" edge="1">
          <mxGeometry width="100" height="100" relative="1" as="geometry">
            <mxPoint x="1140" y="900" as="sourcePoint" />
            <mxPoint x="920" y="820" as="targetPoint" />
          </mxGeometry>
        </mxCell>
        <mxCell id="QuH1iGlzTcQ91HS6C5MP-6" value="THUOC" style="shape=associativeEntity;whiteSpace=wrap;html=1;align=center;" parent="1" vertex="1">
          <mxGeometry x="990" y="1200" width="140" height="80" as="geometry" />
        </mxCell>
        <mxCell id="sSmJycNQ5Al9g1eJPXJk-2" style="edgeStyle=orthogonalEdgeStyle;rounded=0;orthogonalLoop=1;jettySize=auto;html=1;exitX=0.5;exitY=1;exitDx=0;exitDy=0;entryX=0.5;entryY=0;entryDx=0;entryDy=0;strokeWidth=1;endArrow=ERmandOne;endFill=0;" parent="1" source="sSmJycNQ5Al9g1eJPXJk-3" target="sSmJycNQ5Al9g1eJPXJk-1" edge="1">
          <mxGeometry relative="1" as="geometry">
            <mxPoint x="1740" y="860" as="targetPoint" />
            <Array as="points">
              <mxPoint x="2750" y="720" />
              <mxPoint x="2860" y="720" />
              <mxPoint x="2860" y="90" />
              <mxPoint x="1610" y="90" />
              <mxPoint x="1610" y="110" />
              <mxPoint x="1590" y="110" />
            </Array>
          </mxGeometry>
        </mxCell>
        <mxCell id="j-kXOUDZHqtne9S52VdA-3" value="Text" style="edgeLabel;html=1;align=center;verticalAlign=middle;resizable=0;points=[];rotation=90;" vertex="1" connectable="0" parent="sSmJycNQ5Al9g1eJPXJk-2">
          <mxGeometry x="-0.6144" y="12" relative="1" as="geometry">
            <mxPoint x="-1" as="offset" />
          </mxGeometry>
        </mxCell>
        <mxCell id="sSmJycNQ5Al9g1eJPXJk-3" value="CO" style="shape=rhombus;perimeter=rhombusPerimeter;whiteSpace=wrap;html=1;align=center;" parent="1" vertex="1">
          <mxGeometry x="2690" y="600" width="120" height="50" as="geometry" />
        </mxCell>
        <mxCell id="sSmJycNQ5Al9g1eJPXJk-4" value="" style="fontSize=12;html=1;endArrow=ERmandOne;rounded=0;entryX=0.5;entryY=1;entryDx=0;entryDy=0;exitX=0.5;exitY=0;exitDx=0;exitDy=0;" parent="1" source="sSmJycNQ5Al9g1eJPXJk-3" target="FHmFIX5hyPcaEQ4ioB96-6" edge="1">
          <mxGeometry width="100" height="100" relative="1" as="geometry">
            <mxPoint x="1590" y="780" as="sourcePoint" />
            <mxPoint x="1690" y="680" as="targetPoint" />
          </mxGeometry>
        </mxCell>
        <mxCell id="OnRxpxAFXC8eV-0kX3Nb-1" value="KHAM" style="shape=associativeEntity;whiteSpace=wrap;html=1;align=center;" parent="1" vertex="1">
          <mxGeometry x="2310" y="1000" width="140" height="60" as="geometry" />
        </mxCell>
        <mxCell id="OnRxpxAFXC8eV-0kX3Nb-2" value="" style="endArrow=none;html=1;rounded=0;strokeWidth=1;entryX=0;entryY=0.5;entryDx=0;entryDy=0;exitX=0.857;exitY=0.5;exitDx=0;exitDy=0;exitPerimeter=0;" parent="1" source="OnRxpxAFXC8eV-0kX3Nb-1" target="OnRxpxAFXC8eV-0kX3Nb-5" edge="1">
          <mxGeometry relative="1" as="geometry">
            <mxPoint x="2450" y="1030" as="sourcePoint" />
            <mxPoint x="1670" y="1145" as="targetPoint" />
          </mxGeometry>
        </mxCell>
        <mxCell id="OnRxpxAFXC8eV-0kX3Nb-4" value="" style="edgeStyle=entityRelationEdgeStyle;fontSize=12;html=1;endArrow=ERoneToMany;rounded=0;strokeWidth=1;exitX=0;exitY=0.5;exitDx=0;exitDy=0;" parent="1" source="OnRxpxAFXC8eV-0kX3Nb-1" edge="1">
          <mxGeometry width="100" height="100" relative="1" as="geometry">
            <mxPoint x="1200" y="1080" as="sourcePoint" />
            <mxPoint x="1450" y="1020" as="targetPoint" />
          </mxGeometry>
        </mxCell>
        <mxCell id="OnRxpxAFXC8eV-0kX3Nb-5" value="NGAYKHAM" style="ellipse;whiteSpace=wrap;html=1;align=center;" parent="1" vertex="1">
          <mxGeometry x="2700" y="1010" width="100" height="40" as="geometry" />
        </mxCell>
        <mxCell id="OnRxpxAFXC8eV-0kX3Nb-6" value="KETQUA" style="ellipse;whiteSpace=wrap;html=1;align=center;" parent="1" vertex="1">
          <mxGeometry x="2690" y="880" width="120" height="40" as="geometry" />
        </mxCell>
        <mxCell id="OnRxpxAFXC8eV-0kX3Nb-7" value="" style="endArrow=none;html=1;rounded=0;entryX=1;entryY=0.5;entryDx=0;entryDy=0;exitX=0;exitY=0.5;exitDx=0;exitDy=0;" parent="1" source="OnRxpxAFXC8eV-0kX3Nb-6" target="OnRxpxAFXC8eV-0kX3Nb-1" edge="1">
          <mxGeometry relative="1" as="geometry">
            <mxPoint x="1540" y="1130" as="sourcePoint" />
            <mxPoint x="1700" y="1130" as="targetPoint" />
          </mxGeometry>
        </mxCell>
        <mxCell id="A4t9HWW_s6vygkzshDme-1" value="TOATHUOC" style="whiteSpace=wrap;html=1;align=center;" parent="1" vertex="1">
          <mxGeometry x="2310" y="1200" width="100" height="75" as="geometry" />
        </mxCell>
        <mxCell id="A4t9HWW_s6vygkzshDme-2" value="" style="edgeStyle=entityRelationEdgeStyle;fontSize=12;html=1;endArrow=ERoneToMany;rounded=0;strokeWidth=1;exitX=0.5;exitY=0;exitDx=0;exitDy=0;entryX=0.5;entryY=1;entryDx=0;entryDy=0;" parent="1" source="A4t9HWW_s6vygkzshDme-9" target="A4t9HWW_s6vygkzshDme-1" edge="1">
          <mxGeometry width="100" height="100" relative="1" as="geometry">
            <mxPoint x="1770" y="1269.9999999999998" as="sourcePoint" />
            <mxPoint x="1500" y="950" as="targetPoint" />
          </mxGeometry>
        </mxCell>
        <mxCell id="A4t9HWW_s6vygkzshDme-3" value="GIA" style="ellipse;whiteSpace=wrap;html=1;align=center;" parent="1" vertex="1">
          <mxGeometry x="1810" y="1487.5" width="100" height="45" as="geometry" />
        </mxCell>
        <mxCell id="A4t9HWW_s6vygkzshDme-4" value="" style="fontSize=12;html=1;endArrow=ERoneToMany;rounded=0;strokeWidth=1;exitX=0;exitY=0.5;exitDx=0;exitDy=0;entryX=0.75;entryY=1;entryDx=0;entryDy=0;" parent="1" source="A4t9HWW_s6vygkzshDme-13" target="Ici6xvGNjJe0Fm8LB-4U-1" edge="1">
          <mxGeometry width="100" height="100" relative="1" as="geometry">
            <mxPoint x="1350" y="1299.9999999999998" as="sourcePoint" />
            <mxPoint x="860" y="1089.9999999999998" as="targetPoint" />
          </mxGeometry>
        </mxCell>
        <mxCell id="A4t9HWW_s6vygkzshDme-6" value="" style="edgeStyle=entityRelationEdgeStyle;fontSize=12;html=1;endArrow=ERmandOne;rounded=0;strokeWidth=1;entryX=0.5;entryY=0;entryDx=0;entryDy=0;exitX=0.5;exitY=1;exitDx=0;exitDy=0;" parent="1" source="A4t9HWW_s6vygkzshDme-7" target="A4t9HWW_s6vygkzshDme-1" edge="1">
          <mxGeometry width="100" height="100" relative="1" as="geometry">
            <mxPoint x="2020" y="865" as="sourcePoint" />
            <mxPoint x="1940" y="850" as="targetPoint" />
          </mxGeometry>
        </mxCell>
        <mxCell id="A4t9HWW_s6vygkzshDme-7" value="CO" style="shape=rhombus;perimeter=rhombusPerimeter;whiteSpace=wrap;html=1;align=center;" parent="1" vertex="1">
          <mxGeometry x="2700" y="1130" width="120" height="60" as="geometry" />
        </mxCell>
        <mxCell id="A4t9HWW_s6vygkzshDme-8" value="THUOC" style="whiteSpace=wrap;html=1;align=center;" parent="1" vertex="1">
          <mxGeometry x="2190" y="1390" width="100" height="40" as="geometry" />
        </mxCell>
        <mxCell id="A4t9HWW_s6vygkzshDme-9" value="CHITIETTOATHUOC" style="shape=associativeEntity;whiteSpace=wrap;html=1;align=center;" parent="1" vertex="1">
          <mxGeometry x="2350" y="1600" width="140" height="70" as="geometry" />
        </mxCell>
        <mxCell id="A4t9HWW_s6vygkzshDme-10" value="SOLUONG" style="ellipse;whiteSpace=wrap;html=1;align=center;" parent="1" vertex="1">
          <mxGeometry x="2700" y="1615" width="100" height="55" as="geometry" />
        </mxCell>
        <mxCell id="A4t9HWW_s6vygkzshDme-11" value="" style="edgeStyle=entityRelationEdgeStyle;fontSize=12;html=1;endArrow=ERoneToMany;rounded=0;strokeWidth=1;exitX=0;exitY=0.5;exitDx=0;exitDy=0;entryX=1;entryY=0.5;entryDx=0;entryDy=0;" parent="1" source="A4t9HWW_s6vygkzshDme-9" target="A4t9HWW_s6vygkzshDme-8" edge="1">
          <mxGeometry width="100" height="100" relative="1" as="geometry">
            <mxPoint x="1565" y="1070" as="sourcePoint" />
            <mxPoint x="1665" y="970" as="targetPoint" />
          </mxGeometry>
        </mxCell>
        <mxCell id="A4t9HWW_s6vygkzshDme-12" value="" style="endArrow=none;html=1;rounded=0;strokeWidth=1;entryX=0.5;entryY=1;entryDx=0;entryDy=0;exitX=1;exitY=0.5;exitDx=0;exitDy=0;" parent="1" source="A4t9HWW_s6vygkzshDme-9" target="A4t9HWW_s6vygkzshDme-10" edge="1">
          <mxGeometry relative="1" as="geometry">
            <mxPoint x="1535" y="1020" as="sourcePoint" />
            <mxPoint x="1695" y="1020" as="targetPoint" />
          </mxGeometry>
        </mxCell>
        <mxCell id="A4t9HWW_s6vygkzshDme-13" value="THAYDOI" style="shape=associativeEntity;whiteSpace=wrap;html=1;align=center;" parent="1" vertex="1">
          <mxGeometry x="1890" y="1202.5" width="140" height="75" as="geometry" />
        </mxCell>
        <mxCell id="A4t9HWW_s6vygkzshDme-14" value="NGAYAPDUNG" style="ellipse;whiteSpace=wrap;html=1;align=center;" parent="1" vertex="1">
          <mxGeometry x="2000" y="1490" width="100" height="50" as="geometry" />
        </mxCell>
        <mxCell id="A4t9HWW_s6vygkzshDme-15" value="" style="endArrow=none;html=1;rounded=0;strokeWidth=1;entryX=0.5;entryY=0;entryDx=0;entryDy=0;exitX=0.5;exitY=1;exitDx=0;exitDy=0;" parent="1" source="A4t9HWW_s6vygkzshDme-13" target="A4t9HWW_s6vygkzshDme-3" edge="1">
          <mxGeometry relative="1" as="geometry">
            <mxPoint x="1185" y="1020" as="sourcePoint" />
            <mxPoint x="1335" y="1229.9999999999998" as="targetPoint" />
          </mxGeometry>
        </mxCell>
        <mxCell id="A4t9HWW_s6vygkzshDme-16" value="" style="endArrow=none;html=1;rounded=0;strokeWidth=1;exitX=0.5;exitY=1;exitDx=0;exitDy=0;entryX=0.8;entryY=0.2;entryDx=0;entryDy=0;entryPerimeter=0;" parent="1" source="A4t9HWW_s6vygkzshDme-13" target="A4t9HWW_s6vygkzshDme-14" edge="1">
          <mxGeometry relative="1" as="geometry">
            <mxPoint x="1235" y="1040" as="sourcePoint" />
            <mxPoint x="2050" y="1490" as="targetPoint" />
          </mxGeometry>
        </mxCell>
        <mxCell id="A4t9HWW_s6vygkzshDme-17" value="" style="edgeStyle=entityRelationEdgeStyle;fontSize=12;html=1;endArrow=ERoneToMany;rounded=0;strokeWidth=1;exitX=1;exitY=0.75;exitDx=0;exitDy=0;entryX=0.25;entryY=0;entryDx=0;entryDy=0;" parent="1" source="A4t9HWW_s6vygkzshDme-13" target="A4t9HWW_s6vygkzshDme-8" edge="1">
          <mxGeometry width="100" height="100" relative="1" as="geometry">
            <mxPoint x="1800" y="1270" as="sourcePoint" />
            <mxPoint x="2090" y="1420" as="targetPoint" />
          </mxGeometry>
        </mxCell>
        <mxCell id="A4t9HWW_s6vygkzshDme-18" value="GIA" style="ellipse;whiteSpace=wrap;html=1;align=center;" parent="1" vertex="1">
          <mxGeometry x="2700" y="1475" width="100" height="50" as="geometry" />
        </mxCell>
        <mxCell id="A4t9HWW_s6vygkzshDme-19" value="" style="endArrow=none;html=1;rounded=0;exitX=1;exitY=0;exitDx=0;exitDy=0;entryX=0.1;entryY=0.9;entryDx=0;entryDy=0;entryPerimeter=0;" parent="1" source="A4t9HWW_s6vygkzshDme-9" target="A4t9HWW_s6vygkzshDme-18" edge="1">
          <mxGeometry relative="1" as="geometry">
            <mxPoint x="1485" y="970" as="sourcePoint" />
            <mxPoint x="2580" y="1810" as="targetPoint" />
          </mxGeometry>
        </mxCell>
        <mxCell id="A4t9HWW_s6vygkzshDme-20" value="" style="edgeStyle=entityRelationEdgeStyle;fontSize=12;html=1;endArrow=ERoneToMany;rounded=0;entryX=0.5;entryY=1;entryDx=0;entryDy=0;exitX=0.5;exitY=0;exitDx=0;exitDy=0;" parent="1" source="OnRxpxAFXC8eV-0kX3Nb-1" target="sSmJycNQ5Al9g1eJPXJk-1" edge="1">
          <mxGeometry width="100" height="100" relative="1" as="geometry">
            <mxPoint x="1640" y="1020" as="sourcePoint" />
            <mxPoint x="1740" y="920" as="targetPoint" />
          </mxGeometry>
        </mxCell>
        <mxCell id="TCSrHQ2MragAHlm2SAvJ-1" value="PHONG" style="whiteSpace=wrap;html=1;align=center;" parent="1" vertex="1">
          <mxGeometry x="880" y="1610" width="100" height="60" as="geometry" />
        </mxCell>
        <mxCell id="TCSrHQ2MragAHlm2SAvJ-2" value="THAYDOI" style="shape=associativeEntity;whiteSpace=wrap;html=1;align=center;" parent="1" vertex="1">
          <mxGeometry x="300" y="1200" width="340" height="90" as="geometry" />
        </mxCell>
        <mxCell id="TCSrHQ2MragAHlm2SAvJ-3" value="GIA" style="ellipse;whiteSpace=wrap;html=1;align=center;" parent="1" vertex="1">
          <mxGeometry x="220" y="1580" width="100" height="60" as="geometry" />
        </mxCell>
        <mxCell id="TCSrHQ2MragAHlm2SAvJ-4" value="" style="edgeStyle=entityRelationEdgeStyle;fontSize=12;html=1;endArrow=ERoneToMany;rounded=0;strokeWidth=1;exitX=0.5;exitY=0;exitDx=0;exitDy=0;entryX=0.5;entryY=1;entryDx=0;entryDy=0;" parent="1" source="TCSrHQ2MragAHlm2SAvJ-2" target="Ici6xvGNjJe0Fm8LB-4U-1" edge="1">
          <mxGeometry width="100" height="100" relative="1" as="geometry">
            <mxPoint x="950" y="1425" as="sourcePoint" />
            <mxPoint x="970" y="1010" as="targetPoint" />
          </mxGeometry>
        </mxCell>
        <mxCell id="TCSrHQ2MragAHlm2SAvJ-5" value="" style="endArrow=none;html=1;rounded=0;strokeWidth=1;entryX=0.5;entryY=0;entryDx=0;entryDy=0;exitX=0.5;exitY=1;exitDx=0;exitDy=0;" parent="1" source="TCSrHQ2MragAHlm2SAvJ-2" target="TCSrHQ2MragAHlm2SAvJ-3" edge="1">
          <mxGeometry relative="1" as="geometry">
            <mxPoint x="850" y="1355" as="sourcePoint" />
            <mxPoint x="1010" y="1355" as="targetPoint" />
          </mxGeometry>
        </mxCell>
        <mxCell id="TCSrHQ2MragAHlm2SAvJ-6" value="" style="endArrow=none;html=1;rounded=0;strokeWidth=1;entryX=0.5;entryY=0;entryDx=0;entryDy=0;exitX=0.5;exitY=1;exitDx=0;exitDy=0;" parent="1" source="TCSrHQ2MragAHlm2SAvJ-2" target="cTbCx6MGAVOu37d9icPA-1" edge="1">
          <mxGeometry relative="1" as="geometry">
            <mxPoint x="900" y="1375" as="sourcePoint" />
            <mxPoint x="1160" y="1544.9999999999998" as="targetPoint" />
          </mxGeometry>
        </mxCell>
        <mxCell id="TCSrHQ2MragAHlm2SAvJ-7" value="" style="edgeStyle=entityRelationEdgeStyle;fontSize=12;html=1;endArrow=ERoneToMany;rounded=0;strokeWidth=1;entryX=0.25;entryY=0;entryDx=0;entryDy=0;exitX=0.619;exitY=0.975;exitDx=0;exitDy=0;exitPerimeter=0;" parent="1" source="TCSrHQ2MragAHlm2SAvJ-2" target="TCSrHQ2MragAHlm2SAvJ-1" edge="1">
          <mxGeometry width="100" height="100" relative="1" as="geometry">
            <mxPoint x="870" y="1320" as="sourcePoint" />
            <mxPoint x="980" y="1405" as="targetPoint" />
          </mxGeometry>
        </mxCell>
        <mxCell id="TCSrHQ2MragAHlm2SAvJ-8" value="GIUONG" style="whiteSpace=wrap;html=1;align=center;" parent="1" vertex="1">
          <mxGeometry x="1430" y="1480" width="100" height="40" as="geometry" />
        </mxCell>
        <mxCell id="TCSrHQ2MragAHlm2SAvJ-9" value="CO" style="shape=rhombus;perimeter=rhombusPerimeter;whiteSpace=wrap;html=1;align=center;" parent="1" vertex="1">
          <mxGeometry x="1250" y="1605" width="130" height="60" as="geometry" />
        </mxCell>
        <mxCell id="TCSrHQ2MragAHlm2SAvJ-10" value="" style="edgeStyle=entityRelationEdgeStyle;fontSize=12;html=1;endArrow=ERoneToMany;rounded=0;strokeWidth=1;entryX=0;entryY=1;entryDx=0;entryDy=0;exitX=1;exitY=0;exitDx=0;exitDy=0;" parent="1" source="TCSrHQ2MragAHlm2SAvJ-9" target="TCSrHQ2MragAHlm2SAvJ-8" edge="1">
          <mxGeometry width="100" height="100" relative="1" as="geometry">
            <mxPoint x="1020" y="1365" as="sourcePoint" />
            <mxPoint x="1120" y="1265" as="targetPoint" />
          </mxGeometry>
        </mxCell>
        <object label="NGAYNHANGIUON" id="TCSrHQ2MragAHlm2SAvJ-14">
          <mxCell style="ellipse;whiteSpace=wrap;html=1;align=center;" parent="1" vertex="1">
            <mxGeometry x="1560" y="1615" width="120" height="55" as="geometry" />
          </mxCell>
        </object>
        <mxCell id="TCSrHQ2MragAHlm2SAvJ-15" value="NGAYTRA" style="ellipse;whiteSpace=wrap;html=1;align=center;" parent="1" vertex="1">
          <mxGeometry x="1610" y="1490" width="100" height="40" as="geometry" />
        </mxCell>
        <mxCell id="cTbCx6MGAVOu37d9icPA-1" value="NGAYAPDUNG" style="ellipse;whiteSpace=wrap;html=1;align=center;" parent="1" vertex="1">
          <mxGeometry x="530" y="1590" width="100" height="60" as="geometry" />
        </mxCell>
        <mxCell id="cTbCx6MGAVOu37d9icPA-2" value="" style="endArrow=none;html=1;rounded=0;startArrow=none;" parent="1" source="TCSrHQ2MragAHlm2SAvJ-12" target="TCSrHQ2MragAHlm2SAvJ-15" edge="1">
          <mxGeometry relative="1" as="geometry">
            <mxPoint x="1580" y="1280" as="sourcePoint" />
            <mxPoint x="1630" y="1480" as="targetPoint" />
          </mxGeometry>
        </mxCell>
        <mxCell id="cTbCx6MGAVOu37d9icPA-3" value="" style="endArrow=none;html=1;rounded=0;entryX=0.331;entryY=0.031;entryDx=0;entryDy=0;entryPerimeter=0;" parent="1" source="TCSrHQ2MragAHlm2SAvJ-8" target="TCSrHQ2MragAHlm2SAvJ-14" edge="1">
          <mxGeometry relative="1" as="geometry">
            <mxPoint x="1490" y="1500" as="sourcePoint" />
            <mxPoint x="1470" y="1280" as="targetPoint" />
          </mxGeometry>
        </mxCell>
        <mxCell id="DerlW2Q-p4Za5OtKDzQE-1" value="DICHVU" style="whiteSpace=wrap;html=1;align=center;" parent="1" vertex="1">
          <mxGeometry x="700" y="730" width="100" height="55" as="geometry" />
        </mxCell>
        <mxCell id="DerlW2Q-p4Za5OtKDzQE-2" value="THAYDOI" style="shape=associativeEntity;whiteSpace=wrap;html=1;align=center;" parent="1" vertex="1">
          <mxGeometry x="370" y="990" width="140" height="60" as="geometry" />
        </mxCell>
        <mxCell id="DerlW2Q-p4Za5OtKDzQE-3" value="" style="edgeStyle=entityRelationEdgeStyle;fontSize=12;html=1;endArrow=ERoneToMany;rounded=0;strokeWidth=1;exitX=0.5;exitY=1;exitDx=0;exitDy=0;" parent="1" source="DerlW2Q-p4Za5OtKDzQE-2" edge="1">
          <mxGeometry width="100" height="100" relative="1" as="geometry">
            <mxPoint x="420" y="630" as="sourcePoint" />
            <mxPoint x="1340" y="1040" as="targetPoint" />
          </mxGeometry>
        </mxCell>
        <mxCell id="DerlW2Q-p4Za5OtKDzQE-4" value="" style="edgeStyle=entityRelationEdgeStyle;fontSize=12;html=1;endArrow=ERoneToMany;rounded=0;strokeWidth=1;exitX=1;exitY=0;exitDx=0;exitDy=0;entryX=0;entryY=0.5;entryDx=0;entryDy=0;" parent="1" source="DerlW2Q-p4Za5OtKDzQE-2" target="DerlW2Q-p4Za5OtKDzQE-1" edge="1">
          <mxGeometry width="100" height="100" relative="1" as="geometry">
            <mxPoint x="420" y="730" as="sourcePoint" />
            <mxPoint x="520" y="630" as="targetPoint" />
          </mxGeometry>
        </mxCell>
        <mxCell id="DerlW2Q-p4Za5OtKDzQE-5" value="GIA" style="ellipse;whiteSpace=wrap;html=1;align=center;" parent="1" vertex="1">
          <mxGeometry x="220" y="730" width="100" height="40" as="geometry" />
        </mxCell>
        <mxCell id="DerlW2Q-p4Za5OtKDzQE-6" value="" style="endArrow=none;html=1;rounded=0;strokeWidth=1;entryX=0.5;entryY=1;entryDx=0;entryDy=0;exitX=0.5;exitY=0;exitDx=0;exitDy=0;" parent="1" source="DerlW2Q-p4Za5OtKDzQE-2" target="DerlW2Q-p4Za5OtKDzQE-5" edge="1">
          <mxGeometry relative="1" as="geometry">
            <mxPoint x="620" y="550" as="sourcePoint" />
            <mxPoint x="560" y="380" as="targetPoint" />
          </mxGeometry>
        </mxCell>
        <mxCell id="DerlW2Q-p4Za5OtKDzQE-7" value="THUCHIEN" style="shape=associativeEntity;whiteSpace=wrap;html=1;align=center;" parent="1" vertex="1">
          <mxGeometry x="1060" y="470" width="140" height="60" as="geometry" />
        </mxCell>
        <mxCell id="DerlW2Q-p4Za5OtKDzQE-8" value="" style="edgeStyle=entityRelationEdgeStyle;fontSize=12;html=1;endArrow=ERoneToMany;rounded=0;strokeWidth=1;exitX=0.5;exitY=1;exitDx=0;exitDy=0;entryX=0.75;entryY=0;entryDx=0;entryDy=0;" parent="1" source="DerlW2Q-p4Za5OtKDzQE-7" target="DerlW2Q-p4Za5OtKDzQE-1" edge="1">
          <mxGeometry width="100" height="100" relative="1" as="geometry">
            <mxPoint x="670" y="630" as="sourcePoint" />
            <mxPoint x="750" y="720" as="targetPoint" />
          </mxGeometry>
        </mxCell>
        <mxCell id="DerlW2Q-p4Za5OtKDzQE-9" value="NGAY" style="ellipse;whiteSpace=wrap;html=1;align=center;" parent="1" vertex="1">
          <mxGeometry x="410" y="730" width="100" height="40" as="geometry" />
        </mxCell>
        <mxCell id="DerlW2Q-p4Za5OtKDzQE-10" value="" style="endArrow=none;html=1;rounded=0;entryX=0.5;entryY=1;entryDx=0;entryDy=0;exitX=0.75;exitY=0;exitDx=0;exitDy=0;" parent="1" source="DerlW2Q-p4Za5OtKDzQE-2" target="DerlW2Q-p4Za5OtKDzQE-9" edge="1">
          <mxGeometry relative="1" as="geometry">
            <mxPoint x="740" y="750" as="sourcePoint" />
            <mxPoint x="900" y="750" as="targetPoint" />
          </mxGeometry>
        </mxCell>
        <mxCell id="DerlW2Q-p4Za5OtKDzQE-11" value="" style="edgeStyle=entityRelationEdgeStyle;fontSize=12;html=1;endArrow=ERoneToMany;rounded=0;entryX=0;entryY=0.5;entryDx=0;entryDy=0;exitX=1;exitY=0.5;exitDx=0;exitDy=0;" parent="1" source="DerlW2Q-p4Za5OtKDzQE-7" target="Ici6xvGNjJe0Fm8LB-4U-1" edge="1">
          <mxGeometry width="100" height="100" relative="1" as="geometry">
            <mxPoint x="1220" y="510" as="sourcePoint" />
            <mxPoint x="1450" y="920" as="targetPoint" />
          </mxGeometry>
        </mxCell>
        <mxCell id="DerlW2Q-p4Za5OtKDzQE-13" value="" style="endArrow=none;html=1;rounded=0;strokeWidth=1;entryX=0.5;entryY=1;entryDx=0;entryDy=0;exitX=0.75;exitY=0;exitDx=0;exitDy=0;" parent="1" source="DerlW2Q-p4Za5OtKDzQE-7" target="DerlW2Q-p4Za5OtKDzQE-14" edge="1">
          <mxGeometry relative="1" as="geometry">
            <mxPoint x="1050" y="410" as="sourcePoint" />
            <mxPoint x="610" y="655" as="targetPoint" />
          </mxGeometry>
        </mxCell>
        <mxCell id="DerlW2Q-p4Za5OtKDzQE-14" value="NGAY" style="ellipse;whiteSpace=wrap;html=1;align=center;" parent="1" vertex="1">
          <mxGeometry x="990" y="320" width="100" height="40" as="geometry" />
        </mxCell>
        <mxCell id="DerlW2Q-p4Za5OtKDzQE-15" value="KETQUA" style="ellipse;whiteSpace=wrap;html=1;align=center;" parent="1" vertex="1">
          <mxGeometry x="775" y="470" width="100" height="50" as="geometry" />
        </mxCell>
        <mxCell id="DerlW2Q-p4Za5OtKDzQE-16" value="" style="endArrow=none;html=1;rounded=0;exitX=1;exitY=0.5;exitDx=0;exitDy=0;entryX=0;entryY=0.5;entryDx=0;entryDy=0;" parent="1" source="DerlW2Q-p4Za5OtKDzQE-15" target="DerlW2Q-p4Za5OtKDzQE-7" edge="1">
          <mxGeometry relative="1" as="geometry">
            <mxPoint x="480" y="640" as="sourcePoint" />
            <mxPoint x="1190" y="530" as="targetPoint" />
          </mxGeometry>
        </mxCell>
        <mxCell id="NbMxlsy5cVb5aJjkaXLb-1" value="PHIEUXUATVIIEN" style="whiteSpace=wrap;html=1;align=center;" parent="1" vertex="1">
          <mxGeometry x="675" y="120" width="100" height="60" as="geometry" />
        </mxCell>
        <mxCell id="NbMxlsy5cVb5aJjkaXLb-2" value="THUOC" style="shape=rhombus;perimeter=rhombusPerimeter;whiteSpace=wrap;html=1;align=center;" parent="1" vertex="1">
          <mxGeometry x="1010" y="130" width="120" height="60" as="geometry" />
        </mxCell>
        <mxCell id="NbMxlsy5cVb5aJjkaXLb-3" value="" style="edgeStyle=entityRelationEdgeStyle;fontSize=12;html=1;endArrow=ERmandOne;strokeWidth=1;curved=1;exitX=1;exitY=0.5;exitDx=0;exitDy=0;entryX=0;entryY=0.5;entryDx=0;entryDy=0;" parent="1" source="NbMxlsy5cVb5aJjkaXLb-2" target="sSmJycNQ5Al9g1eJPXJk-1" edge="1">
          <mxGeometry width="100" height="100" relative="1" as="geometry">
            <mxPoint x="1180" y="160" as="sourcePoint" />
            <mxPoint x="1270" y="130" as="targetPoint" />
          </mxGeometry>
        </mxCell>
        <mxCell id="NbMxlsy5cVb5aJjkaXLb-4" value="" style="edgeStyle=entityRelationEdgeStyle;fontSize=12;html=1;endArrow=ERmandOne;strokeWidth=1;curved=1;entryX=1;entryY=0.5;entryDx=0;entryDy=0;exitX=0;exitY=0.5;exitDx=0;exitDy=0;" parent="1" source="NbMxlsy5cVb5aJjkaXLb-2" target="NbMxlsy5cVb5aJjkaXLb-1" edge="1">
          <mxGeometry width="100" height="100" relative="1" as="geometry">
            <mxPoint x="865" y="160" as="sourcePoint" />
            <mxPoint x="1285" y="130" as="targetPoint" />
          </mxGeometry>
        </mxCell>
        <mxCell id="NbMxlsy5cVb5aJjkaXLb-5" value="LAP" style="shape=rhombus;perimeter=rhombusPerimeter;whiteSpace=wrap;html=1;align=center;" parent="1" vertex="1">
          <mxGeometry x="780" y="310" width="120" height="60" as="geometry" />
        </mxCell>
        <mxCell id="NbMxlsy5cVb5aJjkaXLb-6" value="" style="edgeStyle=entityRelationEdgeStyle;fontSize=12;html=1;endArrow=ERmandOne;strokeWidth=1;curved=1;exitX=0.5;exitY=1;exitDx=0;exitDy=0;entryX=0.5;entryY=0;entryDx=0;entryDy=0;" parent="1" source="NbMxlsy5cVb5aJjkaXLb-5" target="Ici6xvGNjJe0Fm8LB-4U-1" edge="1">
          <mxGeometry width="100" height="100" relative="1" as="geometry">
            <mxPoint x="1180" y="310" as="sourcePoint" />
            <mxPoint x="600" y="479.9999999999998" as="targetPoint" />
          </mxGeometry>
        </mxCell>
        <mxCell id="NbMxlsy5cVb5aJjkaXLb-7" value="" style="edgeStyle=entityRelationEdgeStyle;fontSize=12;html=1;endArrow=ERoneToMany;strokeWidth=1;curved=1;entryX=0.5;entryY=1;entryDx=0;entryDy=0;exitX=0.5;exitY=0;exitDx=0;exitDy=0;" parent="1" source="NbMxlsy5cVb5aJjkaXLb-5" target="NbMxlsy5cVb5aJjkaXLb-1" edge="1">
          <mxGeometry width="100" height="100" relative="1" as="geometry">
            <mxPoint x="1180" y="450" as="sourcePoint" />
            <mxPoint x="1280" y="350" as="targetPoint" />
          </mxGeometry>
        </mxCell>
        <mxCell id="NbMxlsy5cVb5aJjkaXLb-8" value="HOADON" style="whiteSpace=wrap;html=1;align=center;" parent="1" vertex="1">
          <mxGeometry x="230" y="115" width="100" height="60" as="geometry" />
        </mxCell>
        <mxCell id="NbMxlsy5cVb5aJjkaXLb-9" value="THUOC" style="shape=rhombus;perimeter=rhombusPerimeter;whiteSpace=wrap;html=1;align=center;" parent="1" vertex="1">
          <mxGeometry x="420" y="115" width="120" height="60" as="geometry" />
        </mxCell>
        <mxCell id="NbMxlsy5cVb5aJjkaXLb-11" value="" style="edgeStyle=entityRelationEdgeStyle;fontSize=12;html=1;endArrow=ERmandOne;rounded=0;exitX=1;exitY=0.5;exitDx=0;exitDy=0;entryX=0;entryY=0.5;entryDx=0;entryDy=0;" parent="1" source="NbMxlsy5cVb5aJjkaXLb-9" target="NbMxlsy5cVb5aJjkaXLb-1" edge="1">
          <mxGeometry width="100" height="100" relative="1" as="geometry">
            <mxPoint x="790" y="270" as="sourcePoint" />
            <mxPoint x="890" y="170" as="targetPoint" />
          </mxGeometry>
        </mxCell>
        <mxCell id="NbMxlsy5cVb5aJjkaXLb-12" value="" style="edgeStyle=entityRelationEdgeStyle;fontSize=12;html=1;endArrow=ERmandOne;rounded=0;entryX=1;entryY=0.5;entryDx=0;entryDy=0;" parent="1" source="NbMxlsy5cVb5aJjkaXLb-9" target="NbMxlsy5cVb5aJjkaXLb-8" edge="1">
          <mxGeometry width="100" height="100" relative="1" as="geometry">
            <mxPoint x="790" y="270" as="sourcePoint" />
            <mxPoint x="890" y="170" as="targetPoint" />
          </mxGeometry>
        </mxCell>
        <mxCell id="MoeCtV-WLu6R0mO9Lmv4-1" value="PHIEUTAMUNG" style="whiteSpace=wrap;html=1;align=center;" parent="1" vertex="1">
          <mxGeometry x="1305" y="610" width="100" height="40" as="geometry" />
        </mxCell>
        <mxCell id="MoeCtV-WLu6R0mO9Lmv4-2" value="THUOC" style="shape=rhombus;perimeter=rhombusPerimeter;whiteSpace=wrap;html=1;align=center;" parent="1" vertex="1">
          <mxGeometry x="1690" y="600" width="120" height="60" as="geometry" />
        </mxCell>
        <mxCell id="MoeCtV-WLu6R0mO9Lmv4-3" value="" style="edgeStyle=entityRelationEdgeStyle;fontSize=12;html=1;endArrow=ERmandOne;rounded=0;strokeWidth=1;exitX=0.5;exitY=0;exitDx=0;exitDy=0;startArrow=none;" parent="1" source="sSmJycNQ5Al9g1eJPXJk-1" edge="1">
          <mxGeometry width="100" height="100" relative="1" as="geometry">
            <mxPoint x="685" y="1340" as="sourcePoint" />
            <mxPoint x="1600" y="150" as="targetPoint" />
          </mxGeometry>
        </mxCell>
        <mxCell id="MoeCtV-WLu6R0mO9Lmv4-4" value="" style="edgeStyle=entityRelationEdgeStyle;fontSize=12;html=1;endArrow=ERoneToMany;rounded=0;strokeWidth=1;exitX=0;exitY=0.5;exitDx=0;exitDy=0;entryX=1;entryY=0.5;entryDx=0;entryDy=0;" parent="1" source="MoeCtV-WLu6R0mO9Lmv4-2" target="MoeCtV-WLu6R0mO9Lmv4-1" edge="1">
          <mxGeometry width="100" height="100" relative="1" as="geometry">
            <mxPoint x="1555" y="810" as="sourcePoint" />
            <mxPoint x="1655" y="710" as="targetPoint" />
          </mxGeometry>
        </mxCell>
        <mxCell id="MoeCtV-WLu6R0mO9Lmv4-5" value="LAP" style="shape=rhombus;perimeter=rhombusPerimeter;whiteSpace=wrap;html=1;align=center;" parent="1" vertex="1">
          <mxGeometry x="1295" y="740" width="120" height="60" as="geometry" />
        </mxCell>
        <mxCell id="MoeCtV-WLu6R0mO9Lmv4-7" value="" style="edgeStyle=entityRelationEdgeStyle;fontSize=12;html=1;endArrow=ERoneToMany;rounded=0;strokeWidth=1;exitX=0.5;exitY=0;exitDx=0;exitDy=0;entryX=0.5;entryY=1;entryDx=0;entryDy=0;" parent="1" source="MoeCtV-WLu6R0mO9Lmv4-5" target="MoeCtV-WLu6R0mO9Lmv4-1" edge="1">
          <mxGeometry width="100" height="100" relative="1" as="geometry">
            <mxPoint x="1485" y="810" as="sourcePoint" />
            <mxPoint x="1585" y="710" as="targetPoint" />
          </mxGeometry>
        </mxCell>
        <mxCell id="j-kXOUDZHqtne9S52VdA-9" value="" style="endArrow=none;html=1;rounded=0;entryX=0.5;entryY=1;entryDx=0;entryDy=0;exitX=0.5;exitY=0;exitDx=0;exitDy=0;" edge="1" parent="1" source="A4t9HWW_s6vygkzshDme-7" target="OnRxpxAFXC8eV-0kX3Nb-1">
          <mxGeometry width="50" height="50" relative="1" as="geometry">
            <mxPoint x="2000" y="1130" as="sourcePoint" />
            <mxPoint x="2050" y="1090" as="targetPoint" />
          </mxGeometry>
        </mxCell>
        <mxCell id="j-kXOUDZHqtne9S52VdA-11" value="" style="edgeStyle=entityRelationEdgeStyle;fontSize=12;html=1;endArrow=ERmandOne;rounded=0;entryX=1;entryY=0.5;entryDx=0;entryDy=0;exitX=0;exitY=0.5;exitDx=0;exitDy=0;" edge="1" parent="1" source="TCSrHQ2MragAHlm2SAvJ-9" target="TCSrHQ2MragAHlm2SAvJ-1">
          <mxGeometry width="100" height="100" relative="1" as="geometry">
            <mxPoint x="1150" y="1590" as="sourcePoint" />
            <mxPoint x="1250" y="1490" as="targetPoint" />
          </mxGeometry>
        </mxCell>
        <mxCell id="j-kXOUDZHqtne9S52VdA-14" value="" style="edgeStyle=entityRelationEdgeStyle;fontSize=12;html=1;endArrow=ERoneToMany;rounded=0;entryX=0.41;entryY=1.05;entryDx=0;entryDy=0;entryPerimeter=0;exitX=0.382;exitY=0.072;exitDx=0;exitDy=0;exitPerimeter=0;" edge="1" parent="1" source="TCSrHQ2MragAHlm2SAvJ-12" target="sSmJycNQ5Al9g1eJPXJk-1">
          <mxGeometry width="100" height="100" relative="1" as="geometry">
            <mxPoint x="1510" y="1220" as="sourcePoint" />
            <mxPoint x="1600" y="160" as="targetPoint" />
          </mxGeometry>
        </mxCell>
        <mxCell id="j-kXOUDZHqtne9S52VdA-15" value="" style="edgeStyle=entityRelationEdgeStyle;fontSize=12;html=1;endArrow=ERoneToMany;rounded=0;entryX=0.5;entryY=0;entryDx=0;entryDy=0;exitX=0.5;exitY=1;exitDx=0;exitDy=0;" edge="1" parent="1" source="TCSrHQ2MragAHlm2SAvJ-12" target="TCSrHQ2MragAHlm2SAvJ-8">
          <mxGeometry width="100" height="100" relative="1" as="geometry">
            <mxPoint x="1630" y="1390" as="sourcePoint" />
            <mxPoint x="1730" y="1290" as="targetPoint" />
          </mxGeometry>
        </mxCell>
        <mxCell id="TCSrHQ2MragAHlm2SAvJ-12" value="CO" style="shape=associativeEntity;whiteSpace=wrap;html=1;align=center;" parent="1" vertex="1">
          <mxGeometry x="1460" y="1200" width="140" height="80" as="geometry" />
        </mxCell>
        <mxCell id="j-kXOUDZHqtne9S52VdA-17" value="" style="endArrow=none;html=1;rounded=0;" edge="1" parent="1" target="TCSrHQ2MragAHlm2SAvJ-12">
          <mxGeometry relative="1" as="geometry">
            <mxPoint x="1580" y="1280" as="sourcePoint" />
            <mxPoint x="1653.0505685813905" y="1490.194120456963" as="targetPoint" />
          </mxGeometry>
        </mxCell>
        <mxCell id="j-kXOUDZHqtne9S52VdA-19" value="" style="edgeStyle=entityRelationEdgeStyle;fontSize=12;html=1;endArrow=ERmandOne;rounded=0;entryX=0.75;entryY=0;entryDx=0;entryDy=0;" edge="1" parent="1" target="Ici6xvGNjJe0Fm8LB-4U-1">
          <mxGeometry width="100" height="100" relative="1" as="geometry">
            <mxPoint x="1355" y="800" as="sourcePoint" />
            <mxPoint x="1600" y="730" as="targetPoint" />
          </mxGeometry>
        </mxCell>
        <mxCell id="sSmJycNQ5Al9g1eJPXJk-1" value="BENAN" style="whiteSpace=wrap;html=1;align=center;" parent="1" vertex="1">
          <mxGeometry x="1540" y="120" width="100" height="60" as="geometry" />
        </mxCell>
        <mxCell id="j-kXOUDZHqtne9S52VdA-21" value="" style="edgeStyle=entityRelationEdgeStyle;fontSize=12;html=1;endArrow=none;rounded=0;strokeWidth=1;exitX=0.5;exitY=0;exitDx=0;exitDy=0;" edge="1" parent="1" source="MoeCtV-WLu6R0mO9Lmv4-2" target="sSmJycNQ5Al9g1eJPXJk-1">
          <mxGeometry width="100" height="100" relative="1" as="geometry">
            <mxPoint x="1750" y="600" as="sourcePoint" />
            <mxPoint x="1600" y="150" as="targetPoint" />
          </mxGeometry>
        </mxCell>
      </root>
    </mxGraphModel>
  </diagram>
  <diagram id="oIsv8U1HoKlNK3psv-a2" name="Trang-4">
    <mxGraphModel dx="1022" dy="468" grid="1" gridSize="10" guides="1" tooltips="1" connect="1" arrows="1" fold="1" page="1" pageScale="1" pageWidth="827" pageHeight="1169" math="0" shadow="0">
      <root>
        <mxCell id="0" />
        <mxCell id="1" parent="0" />
      </root>
    </mxGraphModel>
  </diagram>
</mxfile>
